G04*
G04 #@! TF.GenerationSoftware,Altium Limited,Altium Designer,24.6.1 (21)*
G04*
G04 Layer_Color=8388736*
%FSLAX44Y44*%
%MOMM*%
G71*
G04*
G04 #@! TF.SameCoordinates,DA47E9CF-6C3E-4516-8E5E-8674E5FB0160*
G04*
G04*
G04 #@! TF.FilePolarity,Negative*
G04*
G01*
G75*
%ADD36R,3.1750X4.9530*%
%ADD47R,2.0500X4.1500*%
%ADD48R,0.8120X0.8120*%
%ADD49R,5.0500X5.0500*%
%ADD50R,1.4500X1.6500*%
%ADD51R,0.8500X1.0000*%
%ADD52R,1.0000X0.8500*%
%ADD53R,1.5000X0.6500*%
%ADD54O,1.5000X0.6500*%
%ADD55R,0.6400X1.3700*%
%ADD56R,0.9500X1.1000*%
%ADD57R,1.5000X0.5000*%
%ADD58R,3.2000X4.4000*%
%ADD59R,1.5500X2.1700*%
%ADD60R,2.8200X1.1500*%
%ADD61R,3.9600X3.8600*%
%ADD62R,0.6600X1.3200*%
%ADD63R,0.6600X0.7600*%
%ADD64R,0.6600X1.0700*%
%ADD65R,1.4500X1.5500*%
%ADD66R,2.7562X1.0042*%
%ADD67R,1.0900X0.5100*%
%ADD68R,2.0500X1.4500*%
%ADD69R,1.6000X0.6500*%
%ADD70R,2.3500X2.3500*%
%ADD71R,1.5500X1.4500*%
%ADD72R,4.5500X1.8500*%
%ADD73R,3.2500X1.6500*%
%ADD74R,2.8500X5.4500*%
%ADD75R,1.6500X3.2500*%
G04:AMPARAMS|DCode=76|XSize=1.95mm|YSize=3.42mm|CornerRadius=0.0915mm|HoleSize=0mm|Usage=FLASHONLY|Rotation=270.000|XOffset=0mm|YOffset=0mm|HoleType=Round|Shape=RoundedRectangle|*
%AMROUNDEDRECTD76*
21,1,1.9500,3.2370,0,0,270.0*
21,1,1.7670,3.4200,0,0,270.0*
1,1,0.1830,-1.6185,-0.8835*
1,1,0.1830,-1.6185,0.8835*
1,1,0.1830,1.6185,0.8835*
1,1,0.1830,1.6185,-0.8835*
%
%ADD76ROUNDEDRECTD76*%
%ADD77R,1.1000X0.9500*%
%ADD78R,2.9500X5.4500*%
%ADD79C,1.8500*%
%ADD80C,3.2500*%
D36*
X240000Y310000D02*
D03*
X330170D02*
D03*
X540000Y290000D02*
D03*
X630170D02*
D03*
D47*
X370000Y567000D02*
D03*
Y480000D02*
D03*
X590000D02*
D03*
Y567000D02*
D03*
X480000Y480000D02*
D03*
Y567000D02*
D03*
D48*
X51610Y186225D02*
D03*
X28750Y195750D02*
D03*
Y176700D02*
D03*
X68750D02*
D03*
Y195750D02*
D03*
X91610Y186225D02*
D03*
D49*
X489750Y290000D02*
D03*
X149750Y325000D02*
D03*
D50*
X452250Y300500D02*
D03*
Y279500D02*
D03*
X112250Y335500D02*
D03*
Y314500D02*
D03*
D51*
X213500Y523500D02*
D03*
X226500D02*
D03*
X243500Y543500D02*
D03*
X256500D02*
D03*
X243500Y523500D02*
D03*
X256500D02*
D03*
X273500Y543500D02*
D03*
X286500D02*
D03*
X286500Y523500D02*
D03*
X273500D02*
D03*
X226500Y543500D02*
D03*
X213500D02*
D03*
X73500Y76250D02*
D03*
X86500D02*
D03*
X86500Y96250D02*
D03*
X73500D02*
D03*
X73500Y116250D02*
D03*
X86500D02*
D03*
X73500Y136250D02*
D03*
X86500D02*
D03*
X73500Y156250D02*
D03*
X86500D02*
D03*
X103500Y136250D02*
D03*
X116500D02*
D03*
X176500Y66250D02*
D03*
X163500D02*
D03*
X633500Y40000D02*
D03*
X646500D02*
D03*
X168585Y430000D02*
D03*
X181585D02*
D03*
X671500Y315000D02*
D03*
X658500D02*
D03*
X481585Y410000D02*
D03*
X468585D02*
D03*
X633500Y660000D02*
D03*
X646500D02*
D03*
X103500Y176250D02*
D03*
X116500D02*
D03*
X456500Y40000D02*
D03*
X443500D02*
D03*
D52*
X190000Y480000D02*
D03*
Y467000D02*
D03*
X230000Y72750D02*
D03*
Y59750D02*
D03*
X275085Y403500D02*
D03*
Y416500D02*
D03*
X255085Y416500D02*
D03*
Y403500D02*
D03*
X370000Y286500D02*
D03*
Y273500D02*
D03*
X575085Y396500D02*
D03*
Y383500D02*
D03*
X555085Y383500D02*
D03*
Y396500D02*
D03*
X20000Y148500D02*
D03*
Y161500D02*
D03*
D53*
X267250Y464450D02*
D03*
D54*
Y477150D02*
D03*
Y489850D02*
D03*
Y502550D02*
D03*
X212750Y464450D02*
D03*
Y477150D02*
D03*
Y489850D02*
D03*
Y502550D02*
D03*
D55*
X180500Y544950D02*
D03*
X199500D02*
D03*
Y522050D02*
D03*
X190000D02*
D03*
X180500D02*
D03*
D56*
X102000Y116250D02*
D03*
X118000D02*
D03*
X118000Y96250D02*
D03*
X102000D02*
D03*
X118000Y76250D02*
D03*
X102000D02*
D03*
X252000Y146250D02*
D03*
X268000D02*
D03*
X192000Y66250D02*
D03*
X208000D02*
D03*
X132000D02*
D03*
X148000D02*
D03*
X102000Y156250D02*
D03*
X118000D02*
D03*
X197085Y350000D02*
D03*
X213085D02*
D03*
X497085Y330000D02*
D03*
X513085D02*
D03*
D57*
X140750Y145500D02*
D03*
Y139000D02*
D03*
Y132500D02*
D03*
Y126000D02*
D03*
Y119500D02*
D03*
Y113000D02*
D03*
Y106500D02*
D03*
Y100000D02*
D03*
Y93500D02*
D03*
Y87000D02*
D03*
X199250D02*
D03*
Y93500D02*
D03*
Y100000D02*
D03*
Y106500D02*
D03*
Y113000D02*
D03*
Y119500D02*
D03*
Y126000D02*
D03*
Y132500D02*
D03*
Y139000D02*
D03*
Y145500D02*
D03*
D58*
X170000Y116250D02*
D03*
D59*
X230000Y137400D02*
D03*
Y95100D02*
D03*
X310000Y582350D02*
D03*
Y624650D02*
D03*
D60*
X260000Y72120D02*
D03*
Y100380D02*
D03*
D61*
X310000Y104550D02*
D03*
Y184550D02*
D03*
D62*
X290950Y70820D02*
D03*
X303650D02*
D03*
X316350D02*
D03*
X329050D02*
D03*
Y150820D02*
D03*
X316350D02*
D03*
X303650D02*
D03*
X290950D02*
D03*
D63*
X316350Y127020D02*
D03*
X303650D02*
D03*
Y207020D02*
D03*
X316350D02*
D03*
D64*
X329050Y125460D02*
D03*
X290950D02*
D03*
Y205460D02*
D03*
X329050D02*
D03*
D65*
X610000Y40000D02*
D03*
X590000D02*
D03*
X610000Y660000D02*
D03*
X590000D02*
D03*
X400000Y40000D02*
D03*
X420000D02*
D03*
D66*
X650000Y132500D02*
D03*
Y100000D02*
D03*
X620000Y132500D02*
D03*
Y100000D02*
D03*
X590000Y132500D02*
D03*
Y100000D02*
D03*
X560000Y132500D02*
D03*
Y100000D02*
D03*
X530000Y132500D02*
D03*
Y100000D02*
D03*
X500000Y132500D02*
D03*
Y100000D02*
D03*
Y150000D02*
D03*
Y182500D02*
D03*
X530000Y150000D02*
D03*
Y182500D02*
D03*
X560000Y150000D02*
D03*
Y182500D02*
D03*
X590000Y150000D02*
D03*
Y182500D02*
D03*
X620000Y150000D02*
D03*
Y182500D02*
D03*
X650000Y150000D02*
D03*
Y182500D02*
D03*
X305085Y406250D02*
D03*
Y373750D02*
D03*
X335085Y406250D02*
D03*
Y373750D02*
D03*
X638935Y386040D02*
D03*
Y353540D02*
D03*
X608935Y386040D02*
D03*
Y353540D02*
D03*
D67*
X276985Y380000D02*
D03*
X253185D02*
D03*
X553185Y360000D02*
D03*
X576985D02*
D03*
D68*
X115085Y408000D02*
D03*
Y372000D02*
D03*
X145085Y408000D02*
D03*
Y372000D02*
D03*
X445085Y388000D02*
D03*
Y352000D02*
D03*
X415085Y388000D02*
D03*
Y352000D02*
D03*
X230000Y178250D02*
D03*
Y214250D02*
D03*
X200000Y178250D02*
D03*
Y214250D02*
D03*
X170000Y178250D02*
D03*
Y214250D02*
D03*
X140000Y178250D02*
D03*
Y214250D02*
D03*
D69*
X232085Y370950D02*
D03*
Y383650D02*
D03*
Y396350D02*
D03*
Y409050D02*
D03*
X178085D02*
D03*
Y396350D02*
D03*
Y383650D02*
D03*
Y370950D02*
D03*
X478085Y350950D02*
D03*
Y363650D02*
D03*
Y376350D02*
D03*
Y389050D02*
D03*
X532085D02*
D03*
Y376350D02*
D03*
Y363650D02*
D03*
Y350950D02*
D03*
D70*
X205085Y390000D02*
D03*
X505085Y370000D02*
D03*
D71*
X370000Y310000D02*
D03*
Y330000D02*
D03*
X665000Y295000D02*
D03*
Y275000D02*
D03*
X20000Y125000D02*
D03*
Y105000D02*
D03*
D72*
X530000Y597000D02*
D03*
Y630000D02*
D03*
D73*
X455000Y633500D02*
D03*
X405000D02*
D03*
D74*
X171000Y623500D02*
D03*
X269000D02*
D03*
D75*
X140000Y538500D02*
D03*
Y488500D02*
D03*
D76*
X130000Y576900D02*
D03*
Y630100D02*
D03*
D77*
X290000Y475500D02*
D03*
Y491500D02*
D03*
D78*
X363040Y144980D02*
D03*
X462040D02*
D03*
D79*
X697300Y591300D02*
D03*
X722700D02*
D03*
X697300Y565900D02*
D03*
X722700D02*
D03*
X697300Y540500D02*
D03*
X722700D02*
D03*
X697300Y515100D02*
D03*
X722700D02*
D03*
X697300Y489700D02*
D03*
X722700D02*
D03*
X697300Y464300D02*
D03*
X722700D02*
D03*
X697300Y438900D02*
D03*
X722700D02*
D03*
X697300Y413500D02*
D03*
X722700D02*
D03*
X697300Y388100D02*
D03*
X722700D02*
D03*
X697300Y362700D02*
D03*
X722700D02*
D03*
X697300Y337300D02*
D03*
X722700D02*
D03*
X697300Y311900D02*
D03*
X722700D02*
D03*
X697300Y286500D02*
D03*
X722700D02*
D03*
X697300Y261100D02*
D03*
X722700D02*
D03*
X697300Y235700D02*
D03*
X722700D02*
D03*
X697300Y210300D02*
D03*
X722700D02*
D03*
X697300Y184900D02*
D03*
X722700D02*
D03*
X697300Y159500D02*
D03*
X722700D02*
D03*
X697300Y134100D02*
D03*
X722700D02*
D03*
X697300Y108700D02*
D03*
X722700D02*
D03*
D80*
X710000Y660000D02*
D03*
Y40000D02*
D03*
X40000D02*
D03*
Y660000D02*
D03*
M02*
