G04*
G04 #@! TF.GenerationSoftware,Altium Limited,Altium Designer,24.6.1 (21)*
G04*
G04 Layer_Color=65535*
%FSLAX44Y44*%
%MOMM*%
G71*
G04*
G04 #@! TF.SameCoordinates,5FF90CE7-55B5-430E-98FD-04FC0866683B*
G04*
G04*
G04 #@! TF.FilePolarity,Positive*
G04*
G01*
G75*
%ADD10C,0.2500*%
%ADD11C,0.6000*%
%ADD12C,0.2000*%
%ADD13C,0.1000*%
%ADD14C,0.1500*%
%ADD15C,0.1270*%
G36*
X682586Y215000D02*
X637414D01*
Y240179D01*
X682586D01*
Y215000D01*
D02*
G37*
G36*
X568153Y650000D02*
X521847D01*
Y675550D01*
X568153D01*
Y650000D01*
D02*
G37*
G36*
X380160Y15000D02*
X299840D01*
Y39809D01*
X380160D01*
Y15000D01*
D02*
G37*
G36*
X392449Y370000D02*
X357551D01*
Y395179D01*
X392449D01*
Y370000D01*
D02*
G37*
G36*
X58257Y230000D02*
X11743D01*
Y255179D01*
X58257D01*
Y230000D01*
D02*
G37*
G36*
X566863Y38512D02*
Y15000D01*
X493137D01*
Y38512D01*
Y58691D01*
X566863D01*
Y38512D01*
D02*
G37*
%LPC*%
G36*
X677586Y234809D02*
X674717D01*
X670922Y224281D01*
X667196Y234809D01*
X664304D01*
X669533Y220000D01*
X672241D01*
X677586Y234809D01*
D02*
G37*
G36*
X658334Y235179D02*
X658103D01*
X657709Y235156D01*
X657316Y235110D01*
X656946Y235041D01*
X656622Y234971D01*
X656298Y234855D01*
X655997Y234740D01*
X655719Y234624D01*
X655465Y234485D01*
X655256Y234346D01*
X655048Y234231D01*
X654886Y234115D01*
X654747Y233999D01*
X654632Y233930D01*
X654562Y233860D01*
X654516Y233814D01*
X654493Y233791D01*
X654238Y233513D01*
X654030Y233236D01*
X653845Y232935D01*
X653683Y232634D01*
X653544Y232310D01*
X653405Y232009D01*
X653243Y231408D01*
X653174Y231130D01*
X653104Y230875D01*
X653081Y230644D01*
X653058Y230436D01*
X653035Y230274D01*
X653012Y230158D01*
Y230066D01*
Y230042D01*
X655766D01*
X655789Y230436D01*
X655881Y230806D01*
X655974Y231107D01*
X656089Y231361D01*
X656205Y231570D01*
X656298Y231732D01*
X656367Y231824D01*
X656390Y231847D01*
X656622Y232079D01*
X656876Y232241D01*
X657131Y232380D01*
X657385Y232449D01*
X657594Y232495D01*
X657756Y232542D01*
X657917D01*
X658241Y232518D01*
X658519Y232449D01*
X658774Y232356D01*
X658982Y232264D01*
X659144Y232148D01*
X659283Y232056D01*
X659352Y231986D01*
X659375Y231963D01*
X659560Y231755D01*
X659699Y231500D01*
X659815Y231269D01*
X659884Y231061D01*
X659931Y230852D01*
X659954Y230690D01*
Y230598D01*
Y230552D01*
X659931Y230251D01*
X659861Y229927D01*
X659769Y229603D01*
X659676Y229325D01*
X659584Y229071D01*
X659491Y228885D01*
X659421Y228747D01*
X659398Y228724D01*
Y228700D01*
X659283Y228492D01*
X659144Y228284D01*
X658820Y227844D01*
X658450Y227405D01*
X658079Y226988D01*
X657732Y226595D01*
X657570Y226433D01*
X657455Y226294D01*
X657339Y226178D01*
X657246Y226086D01*
X657200Y226039D01*
X657177Y226016D01*
X652618Y221342D01*
Y220000D01*
X662892D01*
Y222615D01*
X657570D01*
X659259Y224350D01*
X659630Y224744D01*
X659954Y225114D01*
X660255Y225461D01*
X660532Y225785D01*
X660787Y226109D01*
X660995Y226410D01*
X661203Y226664D01*
X661388Y226919D01*
X661527Y227150D01*
X661666Y227358D01*
X661782Y227520D01*
X661874Y227659D01*
X661921Y227775D01*
X661967Y227867D01*
X662013Y227914D01*
Y227937D01*
X662268Y228492D01*
X662453Y229024D01*
X662592Y229510D01*
X662684Y229927D01*
X662730Y230297D01*
X662754Y230436D01*
X662777Y230552D01*
Y230644D01*
Y230714D01*
Y230760D01*
Y230783D01*
X662754Y231199D01*
X662684Y231593D01*
X662569Y231963D01*
X662476Y232287D01*
X662360Y232565D01*
X662244Y232773D01*
X662175Y232912D01*
X662152Y232958D01*
X661897Y233328D01*
X661620Y233675D01*
X661342Y233953D01*
X661088Y234184D01*
X660856Y234370D01*
X660648Y234485D01*
X660532Y234578D01*
X660509Y234601D01*
X660486D01*
X660093Y234786D01*
X659676Y234925D01*
X659283Y235041D01*
X658912Y235110D01*
X658588Y235156D01*
X658334Y235179D01*
D02*
G37*
G36*
X648268Y234809D02*
X644034D01*
X642414Y232171D01*
X645469D01*
Y220000D01*
X648268D01*
Y234809D01*
D02*
G37*
G36*
X563153Y670179D02*
X560284D01*
X556489Y659651D01*
X552763Y670179D01*
X549871D01*
X555100Y655370D01*
X557808D01*
X563153Y670179D01*
D02*
G37*
G36*
X548135D02*
X541194D01*
X539412Y661942D01*
X541703Y661433D01*
X542027Y661734D01*
X542304Y661965D01*
X542420Y662034D01*
X542513Y662081D01*
X542559Y662127D01*
X542582D01*
X542929Y662266D01*
X543230Y662335D01*
X543345Y662358D01*
X543507D01*
X543808Y662335D01*
X544086Y662266D01*
X544341Y662150D01*
X544549Y662034D01*
X544734Y661896D01*
X544850Y661803D01*
X544942Y661710D01*
X544965Y661687D01*
X545174Y661433D01*
X545336Y661155D01*
X545428Y660877D01*
X545521Y660623D01*
X545567Y660368D01*
X545590Y660183D01*
Y660068D01*
Y660044D01*
Y660021D01*
X545567Y659651D01*
X545498Y659304D01*
X545382Y659003D01*
X545266Y658749D01*
X545127Y658564D01*
X545035Y658401D01*
X544942Y658309D01*
X544919Y658286D01*
X544664Y658077D01*
X544410Y657915D01*
X544132Y657800D01*
X543901Y657730D01*
X543670Y657684D01*
X543507Y657638D01*
X543345D01*
X543091Y657661D01*
X542860Y657684D01*
X542651Y657754D01*
X542466Y657823D01*
X542304Y657869D01*
X542189Y657939D01*
X542119Y657962D01*
X542096Y657985D01*
X541911Y658124D01*
X541726Y658309D01*
X541564Y658471D01*
X541448Y658656D01*
X541356Y658795D01*
X541286Y658934D01*
X541240Y659026D01*
X541217Y659049D01*
X538255D01*
X538440Y658378D01*
X538718Y657777D01*
X538995Y657268D01*
X539296Y656851D01*
X539574Y656504D01*
X539689Y656365D01*
X539805Y656273D01*
X539898Y656180D01*
X539967Y656111D01*
X539990Y656087D01*
X540014Y656064D01*
X540268Y655879D01*
X540546Y655717D01*
X541101Y655440D01*
X541656Y655255D01*
X542165Y655139D01*
X542605Y655046D01*
X542790Y655023D01*
X542952D01*
X543091Y655000D01*
X543276D01*
X543670Y655023D01*
X544040Y655069D01*
X544387Y655139D01*
X544734Y655231D01*
X545336Y655463D01*
X545613Y655602D01*
X545868Y655740D01*
X546076Y655856D01*
X546284Y655995D01*
X546446Y656111D01*
X546608Y656226D01*
X546724Y656319D01*
X546793Y656388D01*
X546840Y656435D01*
X546863Y656458D01*
X547117Y656735D01*
X547349Y657036D01*
X547557Y657337D01*
X547719Y657661D01*
X547858Y657962D01*
X547973Y658263D01*
X548158Y658841D01*
X548228Y659096D01*
X548274Y659350D01*
X548297Y659558D01*
X548321Y659744D01*
X548344Y659905D01*
Y660114D01*
X548321Y660507D01*
X548297Y660877D01*
X548228Y661225D01*
X548135Y661548D01*
X548043Y661872D01*
X547927Y662150D01*
X547788Y662428D01*
X547673Y662659D01*
X547557Y662867D01*
X547418Y663076D01*
X547302Y663238D01*
X547210Y663353D01*
X547117Y663469D01*
X547071Y663538D01*
X547025Y663585D01*
X547002Y663608D01*
X546747Y663862D01*
X546469Y664071D01*
X546192Y664256D01*
X545914Y664418D01*
X545636Y664557D01*
X545359Y664649D01*
X544827Y664834D01*
X544595Y664881D01*
X544364Y664927D01*
X544179Y664950D01*
X543993Y664973D01*
X543855Y664996D01*
X543507D01*
X543345Y664973D01*
X543230Y664950D01*
X543184D01*
X543022Y664904D01*
X542860Y664881D01*
X542744Y664857D01*
X542721Y664834D01*
X542698D01*
X543299Y667565D01*
X548135D01*
Y670179D01*
D02*
G37*
G36*
X532192Y670550D02*
X532007D01*
X531637Y670527D01*
X531267Y670480D01*
X530920Y670411D01*
X530619Y670341D01*
X530017Y670110D01*
X529763Y669971D01*
X529531Y669855D01*
X529323Y669717D01*
X529138Y669578D01*
X528976Y669462D01*
X528837Y669370D01*
X528745Y669277D01*
X528675Y669208D01*
X528629Y669161D01*
X528606Y669138D01*
X528282Y668745D01*
X528027Y668305D01*
X527819Y667866D01*
X527680Y667449D01*
X527565Y667079D01*
X527518Y666940D01*
X527495Y666801D01*
X527472Y666685D01*
X527449Y666593D01*
Y666546D01*
Y666523D01*
X530156D01*
X530225Y666732D01*
X530318Y666917D01*
X530434Y667079D01*
X530550Y667218D01*
X530642Y667333D01*
X530735Y667403D01*
X530781Y667449D01*
X530804Y667472D01*
X530989Y667588D01*
X531197Y667680D01*
X531382Y667750D01*
X531544Y667796D01*
X531706Y667819D01*
X531822Y667842D01*
X531915D01*
X532169Y667819D01*
X532378Y667773D01*
X532563Y667703D01*
X532725Y667634D01*
X532863Y667565D01*
X532956Y667495D01*
X533002Y667449D01*
X533025Y667426D01*
X533164Y667264D01*
X533280Y667102D01*
X533349Y666940D01*
X533419Y666778D01*
X533442Y666639D01*
X533465Y666523D01*
Y666454D01*
Y666431D01*
Y666269D01*
X533419Y666107D01*
X533326Y665829D01*
X533280Y665714D01*
X533234Y665621D01*
X533210Y665575D01*
X533187Y665552D01*
X532956Y665274D01*
X532701Y665066D01*
X532586Y664996D01*
X532493Y664950D01*
X532424Y664904D01*
X532401D01*
X532192Y664834D01*
X531961Y664765D01*
X531706Y664718D01*
X531452Y664672D01*
X531244Y664649D01*
X531059Y664626D01*
X530943Y664603D01*
X530897D01*
Y662196D01*
X531475Y662150D01*
X531961Y662081D01*
X532401Y661965D01*
X532748Y661826D01*
X533025Y661710D01*
X533234Y661595D01*
X533349Y661502D01*
X533396Y661479D01*
X533696Y661201D01*
X533905Y660924D01*
X534067Y660623D01*
X534159Y660368D01*
X534229Y660137D01*
X534252Y659929D01*
X534275Y659813D01*
Y659790D01*
Y659767D01*
X534252Y659443D01*
X534182Y659142D01*
X534067Y658864D01*
X533951Y658656D01*
X533835Y658471D01*
X533720Y658332D01*
X533650Y658240D01*
X533627Y658216D01*
X533372Y658008D01*
X533095Y657846D01*
X532817Y657754D01*
X532563Y657661D01*
X532331Y657615D01*
X532146Y657592D01*
X531984D01*
X531660Y657615D01*
X531359Y657684D01*
X531082Y657777D01*
X530873Y657869D01*
X530688Y657962D01*
X530550Y658054D01*
X530457Y658124D01*
X530434Y658147D01*
X530225Y658378D01*
X530040Y658656D01*
X529902Y658934D01*
X529809Y659211D01*
X529740Y659466D01*
X529693Y659674D01*
X529647Y659813D01*
Y659836D01*
Y659859D01*
X526847D01*
X526893Y659443D01*
X526940Y659049D01*
X527032Y658679D01*
X527125Y658355D01*
X527240Y658031D01*
X527356Y657730D01*
X527495Y657476D01*
X527611Y657221D01*
X527750Y657013D01*
X527865Y656828D01*
X527981Y656666D01*
X528097Y656527D01*
X528189Y656435D01*
X528259Y656365D01*
X528282Y656319D01*
X528305Y656296D01*
X528559Y656064D01*
X528860Y655879D01*
X529138Y655694D01*
X529439Y655555D01*
X530017Y655324D01*
X530573Y655162D01*
X530827Y655116D01*
X531059Y655069D01*
X531290Y655046D01*
X531475Y655023D01*
X531614Y655000D01*
X531822D01*
X532239Y655023D01*
X532632Y655069D01*
X533025Y655116D01*
X533372Y655208D01*
X533696Y655324D01*
X534020Y655440D01*
X534298Y655555D01*
X534553Y655694D01*
X534784Y655810D01*
X534992Y655926D01*
X535154Y656041D01*
X535316Y656157D01*
X535432Y656249D01*
X535501Y656296D01*
X535548Y656342D01*
X535571Y656365D01*
X535825Y656643D01*
X536057Y656921D01*
X536265Y657198D01*
X536427Y657476D01*
X536566Y657754D01*
X536681Y658054D01*
X536866Y658587D01*
X536936Y658818D01*
X536982Y659049D01*
X537005Y659234D01*
X537029Y659420D01*
X537052Y659558D01*
Y659744D01*
X537029Y660229D01*
X536936Y660692D01*
X536820Y661086D01*
X536681Y661433D01*
X536519Y661710D01*
X536404Y661919D01*
X536311Y662057D01*
X536288Y662104D01*
X535987Y662451D01*
X535640Y662752D01*
X535293Y663006D01*
X534946Y663191D01*
X534645Y663330D01*
X534414Y663446D01*
X534321Y663469D01*
X534252Y663492D01*
X534206Y663515D01*
X534182D01*
X534553Y663724D01*
X534853Y663932D01*
X535131Y664163D01*
X535339Y664371D01*
X535501Y664557D01*
X535640Y664695D01*
X535709Y664788D01*
X535733Y664834D01*
X535918Y665135D01*
X536057Y665459D01*
X536149Y665760D01*
X536219Y666038D01*
X536265Y666292D01*
X536288Y666477D01*
Y666593D01*
Y666639D01*
X536265Y666940D01*
X536242Y667218D01*
X536103Y667750D01*
X535895Y668213D01*
X535663Y668606D01*
X535432Y668953D01*
X535224Y669184D01*
X535154Y669277D01*
X535085Y669346D01*
X535062Y669370D01*
X535038Y669393D01*
X534807Y669601D01*
X534553Y669786D01*
X534298Y669925D01*
X534044Y670064D01*
X533534Y670272D01*
X533072Y670411D01*
X532655Y670480D01*
X532470Y670527D01*
X532308D01*
X532192Y670550D01*
D02*
G37*
G36*
X327401Y34809D02*
X324601D01*
Y25044D01*
X318214Y34809D01*
X315553D01*
Y20000D01*
X318353D01*
Y29695D01*
X324693Y20000D01*
X327401D01*
Y34809D01*
D02*
G37*
G36*
X375160D02*
X367085D01*
Y20000D01*
X375160D01*
Y22777D01*
X369885D01*
Y26664D01*
X375160D01*
Y29395D01*
X369885D01*
Y32079D01*
X375160D01*
Y34809D01*
D02*
G37*
G36*
X360768D02*
X357968D01*
Y20000D01*
X364910D01*
Y22684D01*
X360768D01*
Y34809D01*
D02*
G37*
G36*
X348828D02*
X346005D01*
Y20000D01*
X350170D01*
X350794Y20023D01*
X351350Y20069D01*
X351836Y20162D01*
X352229Y20254D01*
X352553Y20324D01*
X352785Y20417D01*
X352923Y20463D01*
X352970Y20486D01*
X353340Y20694D01*
X353664Y20949D01*
X353965Y21203D01*
X354196Y21435D01*
X354404Y21666D01*
X354543Y21851D01*
X354636Y21967D01*
X354659Y22013D01*
X354867Y22406D01*
X355029Y22800D01*
X355145Y23193D01*
X355237Y23540D01*
X355284Y23864D01*
X355307Y24096D01*
Y24304D01*
X355284Y24767D01*
X355214Y25206D01*
X355098Y25577D01*
X354983Y25924D01*
X354867Y26178D01*
X354751Y26386D01*
X354682Y26502D01*
X354659Y26548D01*
X354404Y26895D01*
X354080Y27196D01*
X353756Y27474D01*
X353432Y27705D01*
X353155Y27891D01*
X352923Y28029D01*
X352831Y28076D01*
X352761Y28122D01*
X352715Y28145D01*
X352692D01*
X352970Y28376D01*
X353224Y28608D01*
X353409Y28816D01*
X353571Y29024D01*
X353687Y29186D01*
X353779Y29325D01*
X353826Y29418D01*
X353849Y29441D01*
X353965Y29695D01*
X354057Y29973D01*
X354127Y30228D01*
X354173Y30459D01*
X354196Y30667D01*
X354219Y30829D01*
Y30922D01*
Y30968D01*
X354196Y31431D01*
X354104Y31871D01*
X353965Y32241D01*
X353826Y32588D01*
X353664Y32842D01*
X353548Y33051D01*
X353456Y33166D01*
X353409Y33213D01*
X353085Y33560D01*
X352738Y33837D01*
X352391Y34069D01*
X352067Y34231D01*
X351766Y34370D01*
X351512Y34462D01*
X351442Y34485D01*
X351373Y34508D01*
X351327Y34532D01*
X351304D01*
X351119Y34578D01*
X350910Y34624D01*
X350448Y34694D01*
X349938Y34740D01*
X349453Y34786D01*
X349013D01*
X348828Y34809D01*
D02*
G37*
G36*
X338137D02*
X335291D01*
X329576Y20000D01*
X332514D01*
X333694Y23054D01*
X339734D01*
X340891Y20000D01*
X343830D01*
X338137Y34809D01*
D02*
G37*
G36*
X312915D02*
X304840D01*
Y20000D01*
X312915D01*
Y22777D01*
X307640D01*
Y26664D01*
X312915D01*
Y29395D01*
X307640D01*
Y32079D01*
X312915D01*
Y34809D01*
D02*
G37*
%LPD*%
G36*
X349869Y32102D02*
X350170Y32056D01*
X350424Y31986D01*
X350633Y31917D01*
X350794Y31847D01*
X350910Y31778D01*
X350980Y31732D01*
X351003Y31709D01*
X351165Y31546D01*
X351281Y31361D01*
X351373Y31176D01*
X351419Y30991D01*
X351466Y30829D01*
X351489Y30714D01*
Y30621D01*
Y30598D01*
X351466Y30343D01*
X351419Y30112D01*
X351327Y29904D01*
X351234Y29742D01*
X351142Y29603D01*
X351049Y29510D01*
X351003Y29441D01*
X350980Y29418D01*
X350771Y29279D01*
X350517Y29186D01*
X350262Y29094D01*
X350008Y29048D01*
X349776Y29024D01*
X349591Y29001D01*
X348805D01*
Y32125D01*
X349522D01*
X349869Y32102D01*
D02*
G37*
G36*
X349962Y26456D02*
X350471Y26386D01*
X350887Y26294D01*
X351211Y26201D01*
X351466Y26109D01*
X351651Y26016D01*
X351766Y25947D01*
X351790Y25924D01*
X352044Y25692D01*
X352229Y25461D01*
X352345Y25206D01*
X352437Y24952D01*
X352484Y24744D01*
X352530Y24558D01*
Y24443D01*
Y24397D01*
X352507Y24096D01*
X352437Y23841D01*
X352322Y23633D01*
X352229Y23448D01*
X352113Y23309D01*
X351998Y23216D01*
X351928Y23147D01*
X351905Y23124D01*
X351766Y23054D01*
X351628Y22985D01*
X351257Y22869D01*
X350864Y22800D01*
X350471Y22730D01*
X350100Y22707D01*
X349938D01*
X349776Y22684D01*
X348805D01*
Y26479D01*
X349383D01*
X349962Y26456D01*
D02*
G37*
G36*
X338716Y25785D02*
X334736D01*
X336726Y30875D01*
X338716Y25785D01*
D02*
G37*
%LPC*%
G36*
X387449Y390179D02*
X384580D01*
X380785Y379651D01*
X377059Y390179D01*
X374167D01*
X379397Y375370D01*
X382104D01*
X387449Y390179D01*
D02*
G37*
G36*
X372431D02*
X365490D01*
X363708Y381942D01*
X365999Y381433D01*
X366323Y381734D01*
X366600Y381965D01*
X366716Y382034D01*
X366809Y382081D01*
X366855Y382127D01*
X366878D01*
X367225Y382266D01*
X367526Y382335D01*
X367642Y382358D01*
X367804D01*
X368105Y382335D01*
X368382Y382266D01*
X368637Y382150D01*
X368845Y382034D01*
X369030Y381895D01*
X369146Y381803D01*
X369238Y381710D01*
X369261Y381687D01*
X369470Y381433D01*
X369632Y381155D01*
X369724Y380877D01*
X369817Y380623D01*
X369863Y380368D01*
X369886Y380183D01*
Y380067D01*
Y380044D01*
Y380021D01*
X369863Y379651D01*
X369794Y379304D01*
X369678Y379003D01*
X369562Y378749D01*
X369423Y378563D01*
X369331Y378401D01*
X369238Y378309D01*
X369215Y378286D01*
X368961Y378078D01*
X368706Y377916D01*
X368428Y377800D01*
X368197Y377730D01*
X367966Y377684D01*
X367804Y377638D01*
X367642D01*
X367387Y377661D01*
X367156Y377684D01*
X366948Y377754D01*
X366762Y377823D01*
X366600Y377869D01*
X366485Y377939D01*
X366415Y377962D01*
X366392Y377985D01*
X366207Y378124D01*
X366022Y378309D01*
X365860Y378471D01*
X365744Y378656D01*
X365652Y378795D01*
X365582Y378934D01*
X365536Y379026D01*
X365513Y379049D01*
X362551D01*
X362736Y378378D01*
X363014Y377777D01*
X363292Y377268D01*
X363592Y376851D01*
X363870Y376504D01*
X363986Y376365D01*
X364101Y376273D01*
X364194Y376180D01*
X364263Y376111D01*
X364286Y376087D01*
X364310Y376064D01*
X364564Y375879D01*
X364842Y375717D01*
X365397Y375440D01*
X365952Y375255D01*
X366462Y375139D01*
X366901Y375046D01*
X367086Y375023D01*
X367248D01*
X367387Y375000D01*
X367572D01*
X367966Y375023D01*
X368336Y375069D01*
X368683Y375139D01*
X369030Y375231D01*
X369632Y375463D01*
X369909Y375602D01*
X370164Y375740D01*
X370372Y375856D01*
X370580Y375995D01*
X370742Y376111D01*
X370904Y376226D01*
X371020Y376319D01*
X371090Y376388D01*
X371136Y376435D01*
X371159Y376458D01*
X371413Y376735D01*
X371645Y377036D01*
X371853Y377337D01*
X372015Y377661D01*
X372154Y377962D01*
X372270Y378263D01*
X372455Y378841D01*
X372524Y379096D01*
X372570Y379350D01*
X372593Y379558D01*
X372617Y379744D01*
X372640Y379906D01*
Y380114D01*
X372617Y380507D01*
X372593Y380877D01*
X372524Y381225D01*
X372431Y381548D01*
X372339Y381872D01*
X372223Y382150D01*
X372084Y382428D01*
X371969Y382659D01*
X371853Y382867D01*
X371714Y383076D01*
X371599Y383238D01*
X371506Y383353D01*
X371413Y383469D01*
X371367Y383538D01*
X371321Y383585D01*
X371298Y383608D01*
X371043Y383862D01*
X370765Y384071D01*
X370488Y384256D01*
X370210Y384418D01*
X369933Y384557D01*
X369655Y384649D01*
X369123Y384834D01*
X368891Y384880D01*
X368660Y384927D01*
X368475Y384950D01*
X368290Y384973D01*
X368151Y384996D01*
X367804D01*
X367642Y384973D01*
X367526Y384950D01*
X367480D01*
X367318Y384904D01*
X367156Y384880D01*
X367040Y384857D01*
X367017Y384834D01*
X366994D01*
X367595Y387565D01*
X372431D01*
Y390179D01*
D02*
G37*
G36*
X53257Y249809D02*
X50388D01*
X46593Y239281D01*
X42867Y249809D01*
X39975D01*
X45205Y235000D01*
X47912D01*
X53257Y249809D01*
D02*
G37*
G36*
X37522Y250179D02*
X34722D01*
X28290Y240623D01*
Y238031D01*
X34769D01*
Y235000D01*
X37522D01*
Y238031D01*
X38841D01*
Y240646D01*
X37522D01*
Y250179D01*
D02*
G37*
G36*
X22459D02*
X22227D01*
X21834Y250156D01*
X21440Y250110D01*
X21070Y250041D01*
X20746Y249971D01*
X20422Y249855D01*
X20121Y249740D01*
X19844Y249624D01*
X19589Y249485D01*
X19381Y249346D01*
X19173Y249231D01*
X19011Y249115D01*
X18872Y248999D01*
X18756Y248930D01*
X18687Y248860D01*
X18641Y248814D01*
X18617Y248791D01*
X18363Y248513D01*
X18154Y248236D01*
X17969Y247935D01*
X17807Y247634D01*
X17669Y247310D01*
X17530Y247009D01*
X17368Y246408D01*
X17298Y246130D01*
X17229Y245875D01*
X17206Y245644D01*
X17183Y245436D01*
X17160Y245274D01*
X17136Y245158D01*
Y245066D01*
Y245042D01*
X19890D01*
X19913Y245436D01*
X20006Y245806D01*
X20098Y246107D01*
X20214Y246361D01*
X20330Y246570D01*
X20422Y246732D01*
X20492Y246824D01*
X20515Y246847D01*
X20746Y247079D01*
X21001Y247241D01*
X21255Y247380D01*
X21510Y247449D01*
X21718Y247495D01*
X21880Y247542D01*
X22042D01*
X22366Y247518D01*
X22644Y247449D01*
X22898Y247356D01*
X23106Y247264D01*
X23268Y247148D01*
X23407Y247056D01*
X23477Y246986D01*
X23500Y246963D01*
X23685Y246755D01*
X23824Y246500D01*
X23939Y246269D01*
X24009Y246061D01*
X24055Y245852D01*
X24078Y245690D01*
Y245598D01*
Y245552D01*
X24055Y245251D01*
X23986Y244927D01*
X23893Y244603D01*
X23800Y244325D01*
X23708Y244071D01*
X23615Y243885D01*
X23546Y243747D01*
X23523Y243724D01*
Y243700D01*
X23407Y243492D01*
X23268Y243284D01*
X22944Y242844D01*
X22574Y242405D01*
X22204Y241988D01*
X21857Y241595D01*
X21695Y241433D01*
X21579Y241294D01*
X21463Y241178D01*
X21371Y241086D01*
X21325Y241039D01*
X21302Y241016D01*
X16743Y236342D01*
Y235000D01*
X27017D01*
Y237615D01*
X21695D01*
X23384Y239350D01*
X23754Y239744D01*
X24078Y240114D01*
X24379Y240461D01*
X24657Y240785D01*
X24911Y241109D01*
X25120Y241410D01*
X25328Y241664D01*
X25513Y241919D01*
X25652Y242150D01*
X25791Y242358D01*
X25906Y242520D01*
X25999Y242659D01*
X26045Y242775D01*
X26091Y242867D01*
X26138Y242914D01*
Y242937D01*
X26392Y243492D01*
X26577Y244024D01*
X26716Y244510D01*
X26809Y244927D01*
X26855Y245297D01*
X26878Y245436D01*
X26901Y245552D01*
Y245644D01*
Y245714D01*
Y245760D01*
Y245783D01*
X26878Y246199D01*
X26809Y246593D01*
X26693Y246963D01*
X26600Y247287D01*
X26485Y247565D01*
X26369Y247773D01*
X26300Y247912D01*
X26277Y247958D01*
X26022Y248328D01*
X25744Y248675D01*
X25467Y248953D01*
X25212Y249184D01*
X24981Y249370D01*
X24772Y249485D01*
X24657Y249578D01*
X24634Y249601D01*
X24610D01*
X24217Y249786D01*
X23800Y249925D01*
X23407Y250041D01*
X23037Y250110D01*
X22713Y250156D01*
X22459Y250179D01*
D02*
G37*
%LPD*%
G36*
X34769Y240646D02*
X31367D01*
X34769Y245598D01*
Y240646D01*
D02*
G37*
%LPC*%
G36*
X547586Y53321D02*
X544717D01*
X540922Y42792D01*
X537196Y53321D01*
X534304D01*
X539533Y38512D01*
X542241D01*
X547586Y53321D01*
D02*
G37*
G36*
X528334Y53691D02*
X528103D01*
X527709Y53668D01*
X527316Y53622D01*
X526946Y53552D01*
X526622Y53483D01*
X526298Y53367D01*
X525997Y53251D01*
X525719Y53136D01*
X525465Y52997D01*
X525256Y52858D01*
X525048Y52742D01*
X524886Y52627D01*
X524747Y52511D01*
X524632Y52441D01*
X524562Y52372D01*
X524516Y52326D01*
X524493Y52303D01*
X524238Y52025D01*
X524030Y51747D01*
X523845Y51446D01*
X523683Y51146D01*
X523544Y50822D01*
X523405Y50521D01*
X523243Y49919D01*
X523174Y49642D01*
X523105Y49387D01*
X523081Y49156D01*
X523058Y48947D01*
X523035Y48785D01*
X523012Y48670D01*
Y48577D01*
Y48554D01*
X525765D01*
X525789Y48947D01*
X525881Y49318D01*
X525974Y49618D01*
X526089Y49873D01*
X526205Y50081D01*
X526298Y50243D01*
X526367Y50336D01*
X526390Y50359D01*
X526622Y50590D01*
X526876Y50752D01*
X527131Y50891D01*
X527385Y50960D01*
X527593Y51007D01*
X527756Y51053D01*
X527918D01*
X528241Y51030D01*
X528519Y50960D01*
X528774Y50868D01*
X528982Y50775D01*
X529144Y50660D01*
X529283Y50567D01*
X529352Y50498D01*
X529375Y50475D01*
X529560Y50266D01*
X529699Y50012D01*
X529815Y49780D01*
X529884Y49572D01*
X529931Y49364D01*
X529954Y49202D01*
Y49109D01*
Y49063D01*
X529931Y48762D01*
X529861Y48438D01*
X529769Y48114D01*
X529676Y47837D01*
X529584Y47582D01*
X529491Y47397D01*
X529422Y47258D01*
X529398Y47235D01*
Y47212D01*
X529283Y47004D01*
X529144Y46795D01*
X528820Y46356D01*
X528450Y45916D01*
X528079Y45500D01*
X527732Y45106D01*
X527570Y44944D01*
X527455Y44805D01*
X527339Y44690D01*
X527246Y44597D01*
X527200Y44551D01*
X527177Y44528D01*
X522618Y39854D01*
Y38512D01*
X532892D01*
Y41126D01*
X527570D01*
X529259Y42862D01*
X529630Y43255D01*
X529954Y43625D01*
X530255Y43972D01*
X530532Y44296D01*
X530787Y44620D01*
X530995Y44921D01*
X531203Y45176D01*
X531388Y45430D01*
X531527Y45662D01*
X531666Y45870D01*
X531782Y46032D01*
X531874Y46171D01*
X531921Y46286D01*
X531967Y46379D01*
X532013Y46425D01*
Y46448D01*
X532268Y47004D01*
X532453Y47536D01*
X532592Y48022D01*
X532684Y48438D01*
X532730Y48808D01*
X532754Y48947D01*
X532777Y49063D01*
Y49156D01*
Y49225D01*
Y49271D01*
Y49295D01*
X532754Y49711D01*
X532684Y50104D01*
X532569Y50475D01*
X532476Y50799D01*
X532360Y51076D01*
X532244Y51284D01*
X532175Y51423D01*
X532152Y51470D01*
X531897Y51840D01*
X531620Y52187D01*
X531342Y52465D01*
X531088Y52696D01*
X530856Y52881D01*
X530648Y52997D01*
X530532Y53089D01*
X530509Y53113D01*
X530486D01*
X530093Y53298D01*
X529676Y53436D01*
X529283Y53552D01*
X528913Y53622D01*
X528588Y53668D01*
X528334Y53691D01*
D02*
G37*
G36*
X518268Y53321D02*
X514034D01*
X512414Y50683D01*
X515468D01*
Y38512D01*
X518268D01*
Y53321D01*
D02*
G37*
G36*
X503066Y35550D02*
X502881D01*
X502557Y35526D01*
X502256Y35503D01*
X501701Y35388D01*
X501215Y35203D01*
X500798Y34994D01*
X500451Y34786D01*
X500312Y34694D01*
X500196Y34624D01*
X500104Y34532D01*
X500034Y34485D01*
X500011Y34462D01*
X499988Y34439D01*
X499780Y34231D01*
X499618Y33999D01*
X499456Y33791D01*
X499317Y33560D01*
X499109Y33120D01*
X498970Y32703D01*
X498901Y32333D01*
X498877Y32194D01*
X498854Y32056D01*
X498831Y31940D01*
Y31871D01*
Y31824D01*
Y31801D01*
X498854Y31408D01*
X498947Y31014D01*
X499063Y30644D01*
X499178Y30320D01*
X499317Y30043D01*
X499410Y29834D01*
X499502Y29695D01*
X499525Y29672D01*
Y29649D01*
X499664Y29441D01*
X499849Y29209D01*
X500081Y28978D01*
X500312Y28723D01*
X500821Y28214D01*
X501353Y27729D01*
X501839Y27289D01*
X502071Y27104D01*
X502256Y26942D01*
X502418Y26803D01*
X502533Y26710D01*
X502626Y26641D01*
X502649Y26618D01*
X503089Y26248D01*
X503436Y25947D01*
X503714Y25669D01*
X503922Y25461D01*
X504084Y25276D01*
X504200Y25160D01*
X504246Y25091D01*
X504269Y25068D01*
X504408Y24882D01*
X504500Y24697D01*
X504570Y24535D01*
X504616Y24397D01*
X504639Y24258D01*
X504662Y24165D01*
Y24096D01*
Y24072D01*
X504639Y23864D01*
X504593Y23679D01*
X504500Y23517D01*
X504408Y23378D01*
X504315Y23263D01*
X504223Y23170D01*
X504176Y23124D01*
X504153Y23101D01*
X503968Y22962D01*
X503760Y22869D01*
X503552Y22777D01*
X503367Y22730D01*
X503205Y22707D01*
X503066Y22684D01*
X502950D01*
X502696Y22707D01*
X502441Y22777D01*
X502210Y22869D01*
X501978Y22985D01*
X501562Y23309D01*
X501215Y23679D01*
X500914Y24026D01*
X500682Y24350D01*
X500613Y24466D01*
X500544Y24558D01*
X500520Y24628D01*
X500497Y24651D01*
X498137Y23216D01*
X498461Y22638D01*
X498808Y22129D01*
X499132Y21712D01*
X499456Y21365D01*
X499711Y21111D01*
X499942Y20902D01*
X500081Y20810D01*
X500104Y20764D01*
X500127D01*
X500590Y20509D01*
X501053Y20324D01*
X501515Y20185D01*
X501955Y20092D01*
X502325Y20046D01*
X502487Y20023D01*
X502626D01*
X502719Y20000D01*
X502881D01*
X503251Y20023D01*
X503598Y20046D01*
X504246Y20185D01*
X504824Y20370D01*
X505056Y20486D01*
X505287Y20602D01*
X505495Y20694D01*
X505657Y20810D01*
X505819Y20902D01*
X505935Y20995D01*
X506028Y21064D01*
X506120Y21134D01*
X506143Y21157D01*
X506166Y21180D01*
X506398Y21411D01*
X506583Y21643D01*
X506768Y21897D01*
X506907Y22152D01*
X507138Y22638D01*
X507277Y23124D01*
X507370Y23540D01*
X507393Y23702D01*
X507416Y23864D01*
X507439Y23980D01*
Y24165D01*
X507416Y24512D01*
X507393Y24836D01*
X507323Y25137D01*
X507254Y25391D01*
X507185Y25600D01*
X507138Y25762D01*
X507092Y25854D01*
X507069Y25900D01*
X506907Y26201D01*
X506745Y26479D01*
X506537Y26757D01*
X506328Y27011D01*
X506166Y27243D01*
X506004Y27405D01*
X505912Y27497D01*
X505866Y27543D01*
X505796Y27613D01*
X505681Y27705D01*
X505403Y27960D01*
X505102Y28238D01*
X504755Y28515D01*
X504431Y28793D01*
X504153Y29024D01*
X504061Y29117D01*
X503968Y29186D01*
X503922Y29209D01*
X503899Y29233D01*
X503598Y29487D01*
X503320Y29742D01*
X503066Y29950D01*
X502858Y30135D01*
X502672Y30320D01*
X502487Y30482D01*
X502233Y30737D01*
X502048Y30922D01*
X501932Y31037D01*
X501862Y31107D01*
X501839Y31130D01*
X501701Y31385D01*
X501631Y31616D01*
Y31709D01*
X501608Y31778D01*
Y31824D01*
Y31847D01*
X501631Y31986D01*
X501654Y32102D01*
X501793Y32333D01*
X501909Y32472D01*
X501932Y32495D01*
X501955Y32518D01*
X502094Y32611D01*
X502233Y32703D01*
X502533Y32773D01*
X502672Y32796D01*
X502765Y32819D01*
X502858D01*
X503066Y32796D01*
X503274Y32750D01*
X503482Y32680D01*
X503690Y32588D01*
X504061Y32333D01*
X504385Y32056D01*
X504686Y31778D01*
X504894Y31523D01*
X504963Y31431D01*
X505033Y31361D01*
X505056Y31315D01*
X505079Y31292D01*
X507185Y33143D01*
X506745Y33606D01*
X506352Y34023D01*
X505981Y34346D01*
X505634Y34601D01*
X505380Y34786D01*
X505171Y34925D01*
X505033Y34994D01*
X505009Y35017D01*
X504986D01*
X504616Y35203D01*
X504246Y35318D01*
X503876Y35411D01*
X503552Y35480D01*
X503274Y35526D01*
X503066Y35550D01*
D02*
G37*
G36*
X544948Y35179D02*
X542079D01*
X538284Y24651D01*
X534558Y35179D01*
X531666D01*
X536895Y20370D01*
X539603D01*
X544948Y35179D01*
D02*
G37*
G36*
X524400D02*
X521022D01*
Y20370D01*
X523822D01*
Y26641D01*
X524076D01*
X527431Y20370D01*
X530509D01*
X526992Y26942D01*
X527478Y27150D01*
X527918Y27381D01*
X528288Y27636D01*
X528565Y27867D01*
X528797Y28099D01*
X528959Y28261D01*
X529074Y28376D01*
X529098Y28423D01*
X529329Y28816D01*
X529514Y29233D01*
X529630Y29626D01*
X529722Y30019D01*
X529769Y30366D01*
X529815Y30644D01*
Y30737D01*
Y30806D01*
Y30852D01*
Y30875D01*
X529792Y31385D01*
X529722Y31847D01*
X529607Y32241D01*
X529491Y32611D01*
X529375Y32889D01*
X529259Y33097D01*
X529190Y33236D01*
X529167Y33282D01*
X528913Y33629D01*
X528635Y33930D01*
X528357Y34184D01*
X528103Y34393D01*
X527871Y34555D01*
X527663Y34647D01*
X527547Y34717D01*
X527524Y34740D01*
X527501D01*
X527293Y34809D01*
X527061Y34879D01*
X526506Y34994D01*
X525928Y35064D01*
X525372Y35133D01*
X525094D01*
X524840Y35156D01*
X524608D01*
X524400Y35179D01*
D02*
G37*
G36*
X518222D02*
X510146D01*
Y20370D01*
X518222D01*
Y23147D01*
X512946D01*
Y27034D01*
X518222D01*
Y29765D01*
X512946D01*
Y32449D01*
X518222D01*
Y35179D01*
D02*
G37*
G36*
X554343Y35550D02*
X553810D01*
X553440Y35503D01*
X552723Y35388D01*
X552052Y35203D01*
X551751Y35110D01*
X551473Y35017D01*
X551219Y34925D01*
X550987Y34832D01*
X550802Y34740D01*
X550640Y34647D01*
X550502Y34578D01*
X550409Y34532D01*
X550340Y34508D01*
X550316Y34485D01*
X549692Y34069D01*
X549136Y33606D01*
X548650Y33143D01*
X548257Y32680D01*
X547933Y32287D01*
X547817Y32102D01*
X547702Y31963D01*
X547632Y31824D01*
X547563Y31732D01*
X547540Y31685D01*
X547517Y31662D01*
X547331Y31338D01*
X547193Y30991D01*
X546938Y30320D01*
X546753Y29649D01*
X546637Y29071D01*
X546591Y28793D01*
X546545Y28538D01*
X546521Y28330D01*
Y28145D01*
X546498Y27983D01*
Y27775D01*
X546521Y27196D01*
X546591Y26641D01*
X546707Y26086D01*
X546846Y25577D01*
X547007Y25091D01*
X547193Y24651D01*
X547401Y24234D01*
X547609Y23841D01*
X547794Y23494D01*
X548003Y23193D01*
X548188Y22915D01*
X548350Y22707D01*
X548488Y22522D01*
X548604Y22406D01*
X548674Y22314D01*
X548697Y22291D01*
X549113Y21897D01*
X549576Y21527D01*
X550016Y21226D01*
X550478Y20972D01*
X550964Y20740D01*
X551404Y20555D01*
X551867Y20417D01*
X552283Y20278D01*
X552700Y20185D01*
X553047Y20116D01*
X553394Y20069D01*
X553672Y20046D01*
X553903Y20023D01*
X554088Y20000D01*
X554227D01*
X554805Y20023D01*
X555361Y20092D01*
X555893Y20208D01*
X556402Y20347D01*
X556888Y20509D01*
X557328Y20694D01*
X557744Y20902D01*
X558114Y21111D01*
X558461Y21319D01*
X558739Y21527D01*
X559017Y21712D01*
X559225Y21874D01*
X559387Y22013D01*
X559526Y22129D01*
X559595Y22198D01*
X559618Y22221D01*
X560012Y22661D01*
X560359Y23101D01*
X560660Y23563D01*
X560914Y24026D01*
X561146Y24489D01*
X561308Y24952D01*
X561470Y25391D01*
X561585Y25808D01*
X561678Y26225D01*
X561747Y26572D01*
X561794Y26895D01*
X561840Y27173D01*
Y27405D01*
X561863Y27590D01*
Y27729D01*
X561840Y28330D01*
X561770Y28909D01*
X561655Y29441D01*
X561516Y29973D01*
X561331Y30459D01*
X561146Y30922D01*
X560937Y31338D01*
X560729Y31709D01*
X560521Y32056D01*
X560313Y32380D01*
X560127Y32634D01*
X559942Y32866D01*
X559804Y33028D01*
X559688Y33166D01*
X559618Y33236D01*
X559595Y33259D01*
X559156Y33652D01*
X558716Y34023D01*
X558253Y34323D01*
X557790Y34578D01*
X557351Y34809D01*
X556888Y34994D01*
X556471Y35133D01*
X556055Y35272D01*
X555662Y35364D01*
X555314Y35434D01*
X554991Y35480D01*
X554736Y35503D01*
X554505Y35526D01*
X554343Y35550D01*
D02*
G37*
%LPD*%
G36*
X525303Y32403D02*
X525580Y32380D01*
X525789Y32356D01*
X525951Y32310D01*
X526043Y32287D01*
X526113Y32264D01*
X526136D01*
X526437Y32102D01*
X526645Y31940D01*
X526784Y31801D01*
X526830Y31755D01*
Y31732D01*
X526922Y31593D01*
X526969Y31454D01*
X527061Y31176D01*
Y31061D01*
X527084Y30991D01*
Y30922D01*
Y30899D01*
X527061Y30621D01*
X526992Y30366D01*
X526922Y30181D01*
X526830Y30019D01*
X526714Y29904D01*
X526645Y29811D01*
X526575Y29765D01*
X526552Y29742D01*
X526321Y29626D01*
X526043Y29533D01*
X525742Y29487D01*
X525442Y29441D01*
X525164Y29418D01*
X524909Y29395D01*
X523822D01*
Y32426D01*
X524979D01*
X525303Y32403D01*
D02*
G37*
G36*
X554528Y32796D02*
X554898Y32750D01*
X555222Y32680D01*
X555546Y32588D01*
X556147Y32356D01*
X556402Y32218D01*
X556657Y32079D01*
X556865Y31940D01*
X557050Y31801D01*
X557212Y31685D01*
X557351Y31570D01*
X557467Y31477D01*
X557536Y31408D01*
X557582Y31361D01*
X557605Y31338D01*
X557860Y31061D01*
X558068Y30760D01*
X558276Y30459D01*
X558438Y30158D01*
X558577Y29857D01*
X558693Y29557D01*
X558855Y29001D01*
X558924Y28747D01*
X558970Y28492D01*
X558994Y28284D01*
X559017Y28099D01*
X559040Y27960D01*
Y27844D01*
Y27775D01*
Y27752D01*
X559017Y27358D01*
X558970Y26988D01*
X558901Y26641D01*
X558832Y26294D01*
X558600Y25692D01*
X558461Y25415D01*
X558346Y25160D01*
X558207Y24929D01*
X558068Y24744D01*
X557952Y24558D01*
X557860Y24420D01*
X557767Y24304D01*
X557698Y24234D01*
X557652Y24188D01*
X557629Y24165D01*
X557351Y23911D01*
X557073Y23702D01*
X556795Y23494D01*
X556495Y23332D01*
X556217Y23193D01*
X555916Y23077D01*
X555384Y22915D01*
X555153Y22846D01*
X554921Y22800D01*
X554713Y22777D01*
X554551Y22754D01*
X554389Y22730D01*
X554204D01*
X553880Y22754D01*
X553556Y22777D01*
X552977Y22915D01*
X552445Y23077D01*
X551982Y23286D01*
X551774Y23402D01*
X551612Y23494D01*
X551450Y23587D01*
X551311Y23679D01*
X551219Y23749D01*
X551149Y23795D01*
X551103Y23818D01*
X551080Y23841D01*
X550779Y24119D01*
X550502Y24420D01*
X550270Y24744D01*
X550062Y25044D01*
X549900Y25368D01*
X549761Y25692D01*
X549645Y26016D01*
X549553Y26317D01*
X549460Y26618D01*
X549414Y26872D01*
X549368Y27127D01*
X549344Y27335D01*
Y27497D01*
X549321Y27613D01*
Y27705D01*
Y27729D01*
X549344Y28145D01*
X549391Y28515D01*
X549460Y28886D01*
X549530Y29233D01*
X549645Y29557D01*
X549761Y29857D01*
X549877Y30135D01*
X550016Y30390D01*
X550154Y30621D01*
X550270Y30806D01*
X550386Y30991D01*
X550502Y31130D01*
X550571Y31246D01*
X550640Y31315D01*
X550687Y31361D01*
X550710Y31385D01*
X550987Y31639D01*
X551265Y31847D01*
X551543Y32056D01*
X551844Y32218D01*
X552121Y32356D01*
X552422Y32472D01*
X552954Y32634D01*
X553209Y32703D01*
X553440Y32750D01*
X553648Y32773D01*
X553810Y32796D01*
X553949Y32819D01*
X554157D01*
X554528Y32796D01*
D02*
G37*
D10*
X268500Y455950D02*
G03*
X268500Y455950I-1250J0D01*
G01*
D11*
X249000Y468500D02*
G03*
X249000Y468500I-3000J0D01*
G01*
D12*
X528000Y343000D02*
G03*
X528000Y343000I-1000J0D01*
G01*
X228000Y363000D02*
G03*
X228000Y363000I-1000J0D01*
G01*
X134940Y151810D02*
G03*
X134940Y151810I-500J0D01*
G01*
X218500Y146250D02*
G03*
X218500Y146250I-1000J0D01*
G01*
X195935Y329790D02*
G03*
X195935Y329790I-1000J0D01*
G01*
X495935Y309790D02*
G03*
X495935Y309790I-1000J0D01*
G01*
X560000Y594500D02*
G03*
X560000Y594500I-1000J0D01*
G01*
X323500Y573500D02*
G03*
X323500Y573500I-1000J0D01*
G01*
X256000Y458500D02*
Y508500D01*
X224000Y458500D02*
Y508500D01*
Y458500D02*
X256000D01*
X224000Y508500D02*
X256000D01*
X233650Y361435D02*
X336520D01*
Y258565D02*
Y281485D01*
Y338515D02*
Y361435D01*
X233650Y258565D02*
X336520D01*
X233650D02*
Y281485D01*
Y338515D02*
Y361435D01*
X189585Y365500D02*
X220585D01*
X189585D02*
Y414500D01*
X220585D01*
Y365500D02*
Y414500D01*
X533650Y341435D02*
X636520D01*
Y238565D02*
Y261485D01*
Y318515D02*
Y341435D01*
X533650Y238565D02*
X636520D01*
X533650D02*
Y261485D01*
Y318515D02*
Y341435D01*
X520585Y345500D02*
Y394500D01*
X489585D02*
X520585D01*
X489585Y345500D02*
Y394500D01*
Y345500D02*
X520585D01*
X684600Y96000D02*
X697300D01*
X684600D02*
Y108700D01*
X722700Y96000D02*
X735400D01*
Y108700D01*
X684600Y591300D02*
Y604000D01*
X697300D01*
X735400Y591300D02*
Y604000D01*
X722700D02*
X735400D01*
X29671Y502000D02*
X39668D01*
X34669D01*
Y508665D01*
X29671D01*
X39668D01*
X33003Y511997D02*
X38002D01*
X39668Y513663D01*
Y518661D01*
X41334D01*
X43000Y516995D01*
Y515329D01*
X39668Y518661D02*
X33003D01*
X29671Y528658D02*
X39668D01*
Y523660D01*
X38002Y521993D01*
X34669D01*
X33003Y523660D01*
Y528658D01*
Y531990D02*
X39668D01*
X36335D01*
X34669Y533657D01*
X33003Y535323D01*
Y536989D01*
X39668Y543653D02*
Y546986D01*
X38002Y548652D01*
X34669D01*
X33003Y546986D01*
Y543653D01*
X34669Y541987D01*
X38002D01*
X39668Y543653D01*
Y551984D02*
X33003D01*
Y556982D01*
X34669Y558648D01*
X39668D01*
X33003Y563647D02*
Y566979D01*
X34669Y568645D01*
X39668D01*
Y563647D01*
X38002Y561981D01*
X36335Y563647D01*
Y568645D01*
X33003Y571977D02*
X38002D01*
X39668Y573644D01*
Y578642D01*
X33003D01*
X31337Y583640D02*
X33003D01*
Y581974D01*
Y585307D01*
Y583640D01*
X38002D01*
X39668Y585307D01*
Y590305D02*
Y593637D01*
Y591971D01*
X33003D01*
Y590305D01*
Y605300D02*
Y600302D01*
X34669Y598635D01*
X38002D01*
X39668Y600302D01*
Y605300D01*
Y608632D02*
Y613631D01*
X38002Y615297D01*
X36335Y613631D01*
Y610298D01*
X34669Y608632D01*
X33003Y610298D01*
Y615297D01*
X49671Y297000D02*
X59668D01*
Y301998D01*
X58002Y303664D01*
X51337D01*
X49671Y301998D01*
Y297000D01*
X59668Y311995D02*
Y308663D01*
X58002Y306997D01*
X54669D01*
X53003Y308663D01*
Y311995D01*
X54669Y313661D01*
X56336D01*
Y306997D01*
X53003Y316994D02*
X59668Y320326D01*
X53003Y323658D01*
X59668Y331989D02*
Y328657D01*
X58002Y326990D01*
X54669D01*
X53003Y328657D01*
Y331989D01*
X54669Y333655D01*
X56336D01*
Y326990D01*
X59668Y336987D02*
Y340319D01*
Y338653D01*
X49671D01*
Y336987D01*
X59668Y346984D02*
Y350316D01*
X58002Y351982D01*
X54669D01*
X53003Y350316D01*
Y346984D01*
X54669Y345318D01*
X58002D01*
X59668Y346984D01*
X63000Y355314D02*
X53003D01*
Y360313D01*
X54669Y361979D01*
X58002D01*
X59668Y360313D01*
Y355314D01*
Y370310D02*
Y366977D01*
X58002Y365311D01*
X54669D01*
X53003Y366977D01*
Y370310D01*
X54669Y371976D01*
X56336D01*
Y365311D01*
X49671Y381973D02*
X59668D01*
Y376974D01*
X58002Y375308D01*
X54669D01*
X53003Y376974D01*
Y381973D01*
X49671Y395302D02*
X59668D01*
Y400300D01*
X58002Y401966D01*
X56336D01*
X54669D01*
X53003Y400300D01*
Y395302D01*
Y405298D02*
X58002D01*
X59668Y406965D01*
Y411963D01*
X61334D01*
X63000Y410297D01*
Y408631D01*
X59668Y411963D02*
X53003D01*
X51337Y431956D02*
X49671Y430290D01*
Y426958D01*
X51337Y425292D01*
X58002D01*
X59668Y426958D01*
Y430290D01*
X58002Y431956D01*
X54669D01*
Y428624D01*
X59668Y435289D02*
Y438621D01*
Y436955D01*
X49671D01*
Y435289D01*
X59668Y448618D02*
Y445285D01*
X58002Y443619D01*
X54669D01*
X53003Y445285D01*
Y448618D01*
X54669Y450284D01*
X56336D01*
Y443619D01*
X49671Y453616D02*
X59668D01*
Y458615D01*
X58002Y460281D01*
X56336D01*
X54669D01*
X53003Y458615D01*
Y453616D01*
X59668Y473610D02*
X49671D01*
X53003Y476942D01*
X49671Y480274D01*
X59668D01*
Y483606D02*
X58002D01*
Y485273D01*
X59668D01*
Y483606D01*
X18003Y432000D02*
X24668D01*
X28000Y435332D01*
X24668Y438665D01*
X18003D01*
X28000Y451994D02*
Y455326D01*
Y453660D01*
X18003D01*
X19669Y451994D01*
X28000Y460324D02*
X26334D01*
Y461990D01*
X28000D01*
Y460324D01*
X19669Y468655D02*
X18003Y470321D01*
Y473653D01*
X19669Y475319D01*
X26334D01*
X28000Y473653D01*
Y470321D01*
X26334Y468655D01*
X19669D01*
X18003Y297000D02*
X28000D01*
Y301998D01*
X26334Y303664D01*
X19669D01*
X18003Y301998D01*
Y297000D01*
X19669Y313661D02*
X18003Y311995D01*
Y308663D01*
X19669Y306997D01*
X26334D01*
X28000Y308663D01*
Y311995D01*
X26334Y313661D01*
X18003Y316994D02*
X28000D01*
Y321992D01*
X26334Y323658D01*
X19669D01*
X18003Y321992D01*
Y316994D01*
X19669Y333655D02*
X18003Y331989D01*
Y328656D01*
X19669Y326990D01*
X26334D01*
X28000Y328656D01*
Y331989D01*
X26334Y333655D01*
X19669Y353648D02*
X18003Y351982D01*
Y348650D01*
X19669Y346984D01*
X21335D01*
X23002Y348650D01*
Y351982D01*
X24668Y353648D01*
X26334D01*
X28000Y351982D01*
Y348650D01*
X26334Y346984D01*
X28000Y356981D02*
X21335D01*
X18003Y360313D01*
X21335Y363645D01*
X28000D01*
X23002D01*
Y356981D01*
X18003Y366977D02*
X26334D01*
X28000Y368644D01*
Y371976D01*
X26334Y373642D01*
X18003D01*
Y376974D02*
X24668D01*
X28000Y380307D01*
X24668Y383639D01*
X18003D01*
X19669Y393635D02*
X18003Y391969D01*
Y388637D01*
X19669Y386971D01*
X26334D01*
X28000Y388637D01*
Y391969D01*
X26334Y393635D01*
X28000Y403632D02*
Y396968D01*
X21335Y403632D01*
X19669D01*
X18003Y401966D01*
Y398634D01*
X19669Y396968D01*
X18003Y413629D02*
X19669Y410297D01*
X23002Y406964D01*
X26334D01*
X28000Y408631D01*
Y411963D01*
X26334Y413629D01*
X24668D01*
X23002Y411963D01*
Y406964D01*
X323337Y520002D02*
Y529998D01*
X328335D01*
X330002Y528332D01*
Y525000D01*
X328335Y523334D01*
X323337D01*
X326669D02*
X330002Y520002D01*
X339998D02*
X333334D01*
X339998Y526666D01*
Y528332D01*
X338332Y529998D01*
X335000D01*
X333334Y528332D01*
X348329Y520002D02*
Y529998D01*
X343331Y525000D01*
X349995D01*
X323337Y540002D02*
Y549998D01*
X328335D01*
X330002Y548332D01*
Y545000D01*
X328335Y543334D01*
X323337D01*
X326669D02*
X330002Y540002D01*
X339998D02*
X333334D01*
X339998Y546666D01*
Y548332D01*
X338332Y549998D01*
X335000D01*
X333334Y548332D01*
X343331Y540002D02*
X346663D01*
X344997D01*
Y549998D01*
X343331Y548332D01*
X236671Y580002D02*
Y589998D01*
X241669D01*
X243335Y588332D01*
Y585000D01*
X241669Y583334D01*
X236671D01*
X240003D02*
X243335Y580002D01*
X253332D02*
X246668D01*
X253332Y586666D01*
Y588332D01*
X251666Y589998D01*
X248334D01*
X246668Y588332D01*
X256665Y589998D02*
X263329D01*
Y588332D01*
X256665Y581668D01*
Y580002D01*
X236671Y565002D02*
Y574998D01*
X241669D01*
X243335Y573332D01*
Y570000D01*
X241669Y568334D01*
X236671D01*
X240003D02*
X243335Y565002D01*
X253332D02*
X246668D01*
X253332Y571666D01*
Y573332D01*
X251666Y574998D01*
X248334D01*
X246668Y573332D01*
X263329Y574998D02*
X259997Y573332D01*
X256665Y570000D01*
Y566668D01*
X258331Y565002D01*
X261663D01*
X263329Y566668D01*
Y568334D01*
X261663Y570000D01*
X256665D01*
X196671Y565002D02*
Y574998D01*
X201669D01*
X203335Y573332D01*
Y570000D01*
X201669Y568334D01*
X196671D01*
X200003D02*
X203335Y565002D01*
X213332D02*
X206668D01*
X213332Y571666D01*
Y573332D01*
X211666Y574998D01*
X208334D01*
X206668Y573332D01*
X223329Y574998D02*
X216665D01*
Y570000D01*
X219997Y571666D01*
X221663D01*
X223329Y570000D01*
Y566668D01*
X221663Y565002D01*
X218331D01*
X216665Y566668D01*
X196671Y580002D02*
Y589998D01*
X201669D01*
X203335Y588332D01*
Y585000D01*
X201669Y583334D01*
X196671D01*
X200003D02*
X203335Y580002D01*
X213332D02*
X206668D01*
X213332Y586666D01*
Y588332D01*
X211666Y589998D01*
X208334D01*
X206668Y588332D01*
X223329Y580002D02*
X216665D01*
X223329Y586666D01*
Y588332D01*
X221663Y589998D01*
X218331D01*
X216665Y588332D01*
X161671Y579998D02*
Y570002D01*
X166669D01*
X168335Y571668D01*
Y578332D01*
X166669Y579998D01*
X161671D01*
X171668Y570002D02*
Y576666D01*
X175000Y579998D01*
X178332Y576666D01*
Y570002D01*
Y575000D01*
X171668D01*
X181665Y578332D02*
X183331Y579998D01*
X186663D01*
X188329Y578332D01*
Y576666D01*
X186663Y575000D01*
X184997D01*
X186663D01*
X188329Y573334D01*
Y571668D01*
X186663Y570002D01*
X183331D01*
X181665Y571668D01*
X653337Y604998D02*
X660002Y595002D01*
Y604998D02*
X653337Y595002D01*
X663334D02*
Y604998D01*
X668332D01*
X669998Y603332D01*
Y600000D01*
X668332Y598334D01*
X663334D01*
X673331Y595002D02*
X676663D01*
X674997D01*
Y604998D01*
X673331Y603332D01*
X291671Y54998D02*
Y48334D01*
X295003Y45002D01*
X298335Y48334D01*
Y54998D01*
X301668D02*
X308332D01*
X305000D01*
Y45002D01*
X311665Y53332D02*
X313331Y54998D01*
X316663D01*
X318329Y53332D01*
Y51666D01*
X316663Y50000D01*
X314997D01*
X316663D01*
X318329Y48334D01*
Y46668D01*
X316663Y45002D01*
X313331D01*
X311665Y46668D01*
X286671Y229998D02*
Y223334D01*
X290003Y220002D01*
X293335Y223334D01*
Y229998D01*
X296668D02*
X303332D01*
X300000D01*
Y220002D01*
X313329D02*
X306665D01*
X313329Y226666D01*
Y228332D01*
X311663Y229998D01*
X308331D01*
X306665Y228332D01*
X66700Y219991D02*
Y213326D01*
X70032Y209994D01*
X73365Y213326D01*
Y219991D01*
X76697D02*
X83361D01*
X80029D01*
Y209994D01*
X86694D02*
X90026D01*
X88360D01*
Y219991D01*
X86694Y218325D01*
X411671Y269998D02*
Y263334D01*
X415003Y260002D01*
X418335Y263334D01*
Y269998D01*
X421668D02*
Y260002D01*
X426666D01*
X428332Y261668D01*
Y268332D01*
X426666Y269998D01*
X421668D01*
X438329D02*
X434997Y268332D01*
X431665Y265000D01*
Y261668D01*
X433331Y260002D01*
X436663D01*
X438329Y261668D01*
Y263334D01*
X436663Y265000D01*
X431665D01*
X547268Y386361D02*
Y379696D01*
X550600Y376364D01*
X553932Y379696D01*
Y386361D01*
X557265D02*
Y376364D01*
X562263D01*
X563929Y378030D01*
Y384695D01*
X562263Y386361D01*
X557265D01*
X573926D02*
X567262D01*
Y381362D01*
X570594Y383028D01*
X572260D01*
X573926Y381362D01*
Y378030D01*
X572260Y376364D01*
X568928D01*
X567262Y378030D01*
X296570Y655093D02*
Y648428D01*
X299902Y645096D01*
X303235Y648428D01*
Y655093D01*
X306567D02*
Y645096D01*
X311565D01*
X313231Y646762D01*
Y653427D01*
X311565Y655093D01*
X306567D01*
X321562Y645096D02*
Y655093D01*
X316564Y650094D01*
X323228D01*
X106671Y294998D02*
Y288334D01*
X110003Y285002D01*
X113336Y288334D01*
Y294998D01*
X116668D02*
Y285002D01*
X121666D01*
X123332Y286668D01*
Y293332D01*
X121666Y294998D01*
X116668D01*
X126664Y293332D02*
X128331Y294998D01*
X131663D01*
X133329Y293332D01*
Y291666D01*
X131663Y290000D01*
X129997D01*
X131663D01*
X133329Y288334D01*
Y286668D01*
X131663Y285002D01*
X128331D01*
X126664Y286668D01*
X251671Y369998D02*
Y363334D01*
X255003Y360002D01*
X258335Y363334D01*
Y369998D01*
X261668D02*
Y360002D01*
X266666D01*
X268332Y361668D01*
Y368332D01*
X266666Y369998D01*
X261668D01*
X278329Y360002D02*
X271665D01*
X278329Y366666D01*
Y368332D01*
X276663Y369998D01*
X273331D01*
X271665Y368332D01*
X248337Y129998D02*
Y123334D01*
X251669Y120002D01*
X255002Y123334D01*
Y129998D01*
X258334D02*
Y120002D01*
X263332D01*
X264998Y121668D01*
Y128332D01*
X263332Y129998D01*
X258334D01*
X268331Y120002D02*
X271663D01*
X269997D01*
Y129998D01*
X268331Y128332D01*
X566671Y410002D02*
Y419998D01*
X571669D01*
X573335Y418332D01*
Y415000D01*
X571669Y413334D01*
X566671D01*
X570003D02*
X573335Y410002D01*
X576668Y418332D02*
X578334Y419998D01*
X581666D01*
X583332Y418332D01*
Y416666D01*
X581666Y415000D01*
X580000D01*
X581666D01*
X583332Y413334D01*
Y411668D01*
X581666Y410002D01*
X578334D01*
X576668Y411668D01*
X586665Y418332D02*
X588331Y419998D01*
X591663D01*
X593329Y418332D01*
Y411668D01*
X591663Y410002D01*
X588331D01*
X586665Y411668D01*
Y418332D01*
X531671Y410002D02*
Y419998D01*
X536669D01*
X538335Y418332D01*
Y415000D01*
X536669Y413334D01*
X531671D01*
X535003D02*
X538335Y410002D01*
X548332D02*
X541668D01*
X548332Y416666D01*
Y418332D01*
X546666Y419998D01*
X543334D01*
X541668Y418332D01*
X551665Y411668D02*
X553331Y410002D01*
X556663D01*
X558329Y411668D01*
Y418332D01*
X556663Y419998D01*
X553331D01*
X551665Y418332D01*
Y416666D01*
X553331Y415000D01*
X558329D01*
X461671Y425002D02*
Y434998D01*
X466669D01*
X468335Y433332D01*
Y430000D01*
X466669Y428334D01*
X461671D01*
X465003D02*
X468335Y425002D01*
X478332D02*
X471668D01*
X478332Y431666D01*
Y433332D01*
X476666Y434998D01*
X473334D01*
X471668Y433332D01*
X481665D02*
X483331Y434998D01*
X486663D01*
X488329Y433332D01*
Y431666D01*
X486663Y430000D01*
X488329Y428334D01*
Y426668D01*
X486663Y425002D01*
X483331D01*
X481665Y426668D01*
Y428334D01*
X483331Y430000D01*
X481665Y431666D01*
Y433332D01*
X483331Y430000D02*
X486663D01*
X151671Y460002D02*
Y469998D01*
X156669D01*
X158336Y468332D01*
Y465000D01*
X156669Y463334D01*
X151671D01*
X155003D02*
X158336Y460002D01*
X168332D02*
X161668D01*
X168332Y466666D01*
Y468332D01*
X166666Y469998D01*
X163334D01*
X161668Y468332D01*
X171665D02*
X173331Y469998D01*
X176663D01*
X178329Y468332D01*
Y466666D01*
X176663Y465000D01*
X174997D01*
X176663D01*
X178329Y463334D01*
Y461668D01*
X176663Y460002D01*
X173331D01*
X171665Y461668D01*
X76671Y600002D02*
Y609998D01*
X81669D01*
X83336Y608332D01*
Y605000D01*
X81669Y603334D01*
X76671D01*
X80003D02*
X83336Y600002D01*
X93332D02*
X86668D01*
X93332Y606666D01*
Y608332D01*
X91666Y609998D01*
X88334D01*
X86668Y608332D01*
X96664D02*
X98331Y609998D01*
X101663D01*
X103329Y608332D01*
Y601668D01*
X101663Y600002D01*
X98331D01*
X96664Y601668D01*
Y608332D01*
X441350Y55054D02*
Y65051D01*
X446348D01*
X448014Y63385D01*
Y60052D01*
X446348Y58386D01*
X441350D01*
X444682D02*
X448014Y55054D01*
X451347D02*
X454679D01*
X453013D01*
Y65051D01*
X451347Y63385D01*
X459677Y56720D02*
X461344Y55054D01*
X464676D01*
X466342Y56720D01*
Y63385D01*
X464676Y65051D01*
X461344D01*
X459677Y63385D01*
Y61719D01*
X461344Y60052D01*
X466342D01*
X357504Y250002D02*
Y259998D01*
X362502D01*
X364169Y258332D01*
Y255000D01*
X362502Y253334D01*
X357504D01*
X360836D02*
X364169Y250002D01*
X367501D02*
X370833D01*
X369167D01*
Y259998D01*
X367501Y258332D01*
X375831D02*
X377498Y259998D01*
X380830D01*
X382496Y258332D01*
Y256666D01*
X380830Y255000D01*
X382496Y253334D01*
Y251668D01*
X380830Y250002D01*
X377498D01*
X375831Y251668D01*
Y253334D01*
X377498Y255000D01*
X375831Y256666D01*
Y258332D01*
X377498Y255000D02*
X380830D01*
X627504Y675002D02*
Y684998D01*
X632502D01*
X634169Y683332D01*
Y680000D01*
X632502Y678334D01*
X627504D01*
X630836D02*
X634169Y675002D01*
X637501D02*
X640833D01*
X639167D01*
Y684998D01*
X637501Y683332D01*
X645831Y684998D02*
X652496D01*
Y683332D01*
X645831Y676668D01*
Y675002D01*
X649998Y302504D02*
X640002D01*
Y307502D01*
X641668Y309168D01*
X645000D01*
X646666Y307502D01*
Y302504D01*
Y305836D02*
X649998Y309168D01*
Y312501D02*
Y315833D01*
Y314167D01*
X640002D01*
X641668Y312501D01*
X640002Y327496D02*
X641668Y324164D01*
X645000Y320831D01*
X648332D01*
X649998Y322498D01*
Y325830D01*
X648332Y327496D01*
X646666D01*
X645000Y325830D01*
Y320831D01*
X24028Y212788D02*
Y222785D01*
X29026D01*
X30693Y221119D01*
Y217786D01*
X29026Y216120D01*
X24028D01*
X27360D02*
X30693Y212788D01*
X34025D02*
X37357D01*
X35691D01*
Y222785D01*
X34025Y221119D01*
X49020Y222785D02*
X42355D01*
Y217786D01*
X45688Y219452D01*
X47354D01*
X49020Y217786D01*
Y214454D01*
X47354Y212788D01*
X44022D01*
X42355Y214454D01*
X632504Y10002D02*
Y19998D01*
X637502D01*
X639169Y18332D01*
Y15000D01*
X637502Y13334D01*
X632504D01*
X635836D02*
X639169Y10002D01*
X642501D02*
X645833D01*
X644167D01*
Y19998D01*
X642501Y18332D01*
X655830Y10002D02*
Y19998D01*
X650832Y15000D01*
X657496D01*
X262504Y430002D02*
Y439998D01*
X267502D01*
X269168Y438332D01*
Y435000D01*
X267502Y433334D01*
X262504D01*
X265836D02*
X269168Y430002D01*
X272501D02*
X275833D01*
X274167D01*
Y439998D01*
X272501Y438332D01*
X280832D02*
X282498Y439998D01*
X285830D01*
X287496Y438332D01*
Y436666D01*
X285830Y435000D01*
X284164D01*
X285830D01*
X287496Y433334D01*
Y431668D01*
X285830Y430002D01*
X282498D01*
X280832Y431668D01*
X227504Y430002D02*
Y439998D01*
X232502D01*
X234168Y438332D01*
Y435000D01*
X232502Y433334D01*
X227504D01*
X230836D02*
X234168Y430002D01*
X237501D02*
X240833D01*
X239167D01*
Y439998D01*
X237501Y438332D01*
X252496Y430002D02*
X245832D01*
X252496Y436666D01*
Y438332D01*
X250830Y439998D01*
X247498D01*
X245832Y438332D01*
X164170Y440002D02*
Y449998D01*
X169169D01*
X170835Y448332D01*
Y445000D01*
X169169Y443334D01*
X164170D01*
X167502D02*
X170835Y440002D01*
X174167D02*
X177499D01*
X175833D01*
Y449998D01*
X174167Y448332D01*
X182498Y440002D02*
X185830D01*
X184164D01*
Y449998D01*
X182498Y448332D01*
X37504Y110002D02*
Y119998D01*
X42502D01*
X44169Y118332D01*
Y115000D01*
X42502Y113334D01*
X37504D01*
X40836D02*
X44169Y110002D01*
X47501D02*
X50833D01*
X49167D01*
Y119998D01*
X47501Y118332D01*
X55831D02*
X57498Y119998D01*
X60830D01*
X62496Y118332D01*
Y111668D01*
X60830Y110002D01*
X57498D01*
X55831Y111668D01*
Y118332D01*
X46669Y90002D02*
Y99998D01*
X51668D01*
X53334Y98332D01*
Y95000D01*
X51668Y93334D01*
X46669D01*
X50002D02*
X53334Y90002D01*
X56666Y91668D02*
X58332Y90002D01*
X61665D01*
X63331Y91668D01*
Y98332D01*
X61665Y99998D01*
X58332D01*
X56666Y98332D01*
Y96666D01*
X58332Y95000D01*
X63331D01*
X251669Y50002D02*
Y59998D01*
X256668D01*
X258334Y58332D01*
Y55000D01*
X256668Y53334D01*
X251669D01*
X255002D02*
X258334Y50002D01*
X261666Y58332D02*
X263332Y59998D01*
X266665D01*
X268331Y58332D01*
Y56666D01*
X266665Y55000D01*
X268331Y53334D01*
Y51668D01*
X266665Y50002D01*
X263332D01*
X261666Y51668D01*
Y53334D01*
X263332Y55000D01*
X261666Y56666D01*
Y58332D01*
X263332Y55000D02*
X266665D01*
X161669Y40002D02*
Y49998D01*
X166668D01*
X168334Y48332D01*
Y45000D01*
X166668Y43334D01*
X161669D01*
X165002D02*
X168334Y40002D01*
X171666Y49998D02*
X178331D01*
Y48332D01*
X171666Y41668D01*
Y40002D01*
X221669Y30002D02*
Y39998D01*
X226668D01*
X228334Y38332D01*
Y35000D01*
X226668Y33334D01*
X221669D01*
X225002D02*
X228334Y30002D01*
X238331Y39998D02*
X234998Y38332D01*
X231666Y35000D01*
Y31668D01*
X233332Y30002D01*
X236665D01*
X238331Y31668D01*
Y33334D01*
X236665Y35000D01*
X231666D01*
X46669Y70002D02*
Y79998D01*
X51668D01*
X53334Y78332D01*
Y75000D01*
X51668Y73334D01*
X46669D01*
X50002D02*
X53334Y70002D01*
X63331Y79998D02*
X56666D01*
Y75000D01*
X59998Y76666D01*
X61665D01*
X63331Y75000D01*
Y71668D01*
X61665Y70002D01*
X58332D01*
X56666Y71668D01*
X101669Y55002D02*
Y64998D01*
X106668D01*
X108334Y63332D01*
Y60000D01*
X106668Y58334D01*
X101669D01*
X105002D02*
X108334Y55002D01*
X116664D02*
Y64998D01*
X111666Y60000D01*
X118331D01*
X46669Y130002D02*
Y139998D01*
X51668D01*
X53334Y138332D01*
Y135000D01*
X51668Y133334D01*
X46669D01*
X50002D02*
X53334Y130002D01*
X56666Y138332D02*
X58332Y139998D01*
X61665D01*
X63331Y138332D01*
Y136666D01*
X61665Y135000D01*
X59998D01*
X61665D01*
X63331Y133334D01*
Y131668D01*
X61665Y130002D01*
X58332D01*
X56666Y131668D01*
X101244Y191452D02*
Y201449D01*
X106242D01*
X107908Y199783D01*
Y196450D01*
X106242Y194784D01*
X101244D01*
X104576D02*
X107908Y191452D01*
X117905D02*
X111241D01*
X117905Y198116D01*
Y199783D01*
X116239Y201449D01*
X112907D01*
X111241Y199783D01*
X48335Y150002D02*
Y159998D01*
X53334D01*
X55000Y158332D01*
Y155000D01*
X53334Y153334D01*
X48335D01*
X51668D02*
X55000Y150002D01*
X58332D02*
X61665D01*
X59998D01*
Y159998D01*
X58332Y158332D01*
X501669Y254998D02*
Y245002D01*
X508334D01*
X518331Y254998D02*
X511666D01*
Y250000D01*
X514998Y251666D01*
X516665D01*
X518331Y250000D01*
Y246668D01*
X516665Y245002D01*
X513332D01*
X511666Y246668D01*
X481669Y624998D02*
Y615002D01*
X488334D01*
X496665D02*
Y624998D01*
X491666Y620000D01*
X498331D01*
X131669Y674998D02*
Y665002D01*
X138334D01*
X141666Y673332D02*
X143332Y674998D01*
X146664D01*
X148331Y673332D01*
Y671666D01*
X146664Y670000D01*
X144998D01*
X146664D01*
X148331Y668334D01*
Y666668D01*
X146664Y665002D01*
X143332D01*
X141666Y666668D01*
X211669Y269998D02*
Y260002D01*
X218334D01*
X228331D02*
X221666D01*
X228331Y266666D01*
Y268332D01*
X226665Y269998D01*
X223332D01*
X221666Y268332D01*
X347878Y228373D02*
Y218376D01*
X354543D01*
X357875D02*
X361207D01*
X359541D01*
Y228373D01*
X357875Y226707D01*
X391566Y68607D02*
Y58610D01*
Y63608D01*
X398231D01*
Y68607D01*
Y58610D01*
X401563Y68607D02*
Y58610D01*
X408227D01*
X418224Y68607D02*
X414892Y66941D01*
X411560Y63608D01*
Y60276D01*
X413226Y58610D01*
X416558D01*
X418224Y60276D01*
Y61942D01*
X416558Y63608D01*
X411560D01*
X356671Y359998D02*
Y350002D01*
Y355000D01*
X363335D01*
Y359998D01*
Y350002D01*
X366668Y359998D02*
Y350002D01*
X373332D01*
X383329Y359998D02*
X376665D01*
Y355000D01*
X379997Y356666D01*
X381663D01*
X383329Y355000D01*
Y351668D01*
X381663Y350002D01*
X378331D01*
X376665Y351668D01*
X586671Y684998D02*
Y675002D01*
Y680000D01*
X593335D01*
Y684998D01*
Y675002D01*
X596668Y684998D02*
Y675002D01*
X603332D01*
X611663D02*
Y684998D01*
X606665Y680000D01*
X613329D01*
X651671Y259998D02*
Y250002D01*
Y255000D01*
X658335D01*
Y259998D01*
Y250002D01*
X661668Y259998D02*
Y250002D01*
X668332D01*
X671665Y258332D02*
X673331Y259998D01*
X676663D01*
X678329Y258332D01*
Y256666D01*
X676663Y255000D01*
X674997D01*
X676663D01*
X678329Y253334D01*
Y251668D01*
X676663Y250002D01*
X673331D01*
X671665Y251668D01*
X20472Y189257D02*
Y179260D01*
Y184258D01*
X27136D01*
Y189257D01*
Y179260D01*
X30469Y189257D02*
Y179260D01*
X37133D01*
X47130D02*
X40466D01*
X47130Y185924D01*
Y187591D01*
X45464Y189257D01*
X42132D01*
X40466Y187591D01*
X583337Y19998D02*
Y10002D01*
Y15000D01*
X590002D01*
Y19998D01*
Y10002D01*
X593334Y19998D02*
Y10002D01*
X599998D01*
X603331D02*
X606663D01*
X604997D01*
Y19998D01*
X603331Y18332D01*
X228337Y454998D02*
Y445002D01*
X233335D01*
X235002Y446668D01*
Y453332D01*
X233335Y454998D01*
X228337D01*
X238334D02*
Y445002D01*
X243332D01*
X244998Y446668D01*
Y453332D01*
X243332Y454998D01*
X238334D01*
X248331Y445002D02*
X251663D01*
X249997D01*
Y454998D01*
X248331Y453332D01*
X496671Y419998D02*
Y410002D01*
X501669D01*
X503335Y411668D01*
Y418332D01*
X501669Y419998D01*
X496671D01*
X506668Y410002D02*
Y416666D01*
X510000Y419998D01*
X513332Y416666D01*
Y410002D01*
Y415000D01*
X506668D01*
X521663Y410002D02*
Y419998D01*
X516665Y415000D01*
X523329D01*
X191671Y444998D02*
Y435002D01*
X196669D01*
X198335Y436668D01*
Y443332D01*
X196669Y444998D01*
X191671D01*
X201668Y435002D02*
Y441666D01*
X205000Y444998D01*
X208332Y441666D01*
Y435002D01*
Y440000D01*
X201668D01*
X218329Y435002D02*
X211665D01*
X218329Y441666D01*
Y443332D01*
X216663Y444998D01*
X213331D01*
X211665Y443332D01*
X188337Y164998D02*
Y155002D01*
X193335D01*
X195002Y156668D01*
Y163332D01*
X193335Y164998D01*
X188337D01*
X198334Y155002D02*
Y161666D01*
X201666Y164998D01*
X204998Y161666D01*
Y155002D01*
Y160000D01*
X198334D01*
X208331Y155002D02*
X211663D01*
X209997D01*
Y164998D01*
X208331Y163332D01*
X608335Y413332D02*
X606669Y414998D01*
X603337D01*
X601671Y413332D01*
Y406668D01*
X603337Y405002D01*
X606669D01*
X608335Y406668D01*
X611668Y413332D02*
X613334Y414998D01*
X616666D01*
X618332Y413332D01*
Y411666D01*
X616666Y410000D01*
X615000D01*
X616666D01*
X618332Y408334D01*
Y406668D01*
X616666Y405002D01*
X613334D01*
X611668Y406668D01*
X621665D02*
X623331Y405002D01*
X626663D01*
X628329Y406668D01*
Y413332D01*
X626663Y414998D01*
X623331D01*
X621665Y413332D01*
Y411666D01*
X623331Y410000D01*
X628329D01*
X643335Y413332D02*
X641669Y414998D01*
X638337D01*
X636671Y413332D01*
Y406668D01*
X638337Y405002D01*
X641669D01*
X643335Y406668D01*
X646668Y413332D02*
X648334Y414998D01*
X651666D01*
X653332Y413332D01*
Y411666D01*
X651666Y410000D01*
X650000D01*
X651666D01*
X653332Y408334D01*
Y406668D01*
X651666Y405002D01*
X648334D01*
X646668Y406668D01*
X656665Y413332D02*
X658331Y414998D01*
X661663D01*
X663329Y413332D01*
Y411666D01*
X661663Y410000D01*
X663329Y408334D01*
Y406668D01*
X661663Y405002D01*
X658331D01*
X656665Y406668D01*
Y408334D01*
X658331Y410000D01*
X656665Y411666D01*
Y413332D01*
X658331Y410000D02*
X661663D01*
X501101Y353961D02*
X499434Y355627D01*
X496102D01*
X494436Y353961D01*
Y347296D01*
X496102Y345630D01*
X499434D01*
X501101Y347296D01*
X504433Y353961D02*
X506099Y355627D01*
X509431D01*
X511097Y353961D01*
Y352295D01*
X509431Y350628D01*
X507765D01*
X509431D01*
X511097Y348962D01*
Y347296D01*
X509431Y345630D01*
X506099D01*
X504433Y347296D01*
X514430Y355627D02*
X521094D01*
Y353961D01*
X514430Y347296D01*
Y345630D01*
X438335Y418332D02*
X436669Y419998D01*
X433337D01*
X431671Y418332D01*
Y411668D01*
X433337Y410002D01*
X436669D01*
X438335Y411668D01*
X441668Y418332D02*
X443334Y419998D01*
X446666D01*
X448332Y418332D01*
Y416666D01*
X446666Y415000D01*
X445000D01*
X446666D01*
X448332Y413334D01*
Y411668D01*
X446666Y410002D01*
X443334D01*
X441668Y411668D01*
X458329Y419998D02*
X454997Y418332D01*
X451665Y415000D01*
Y411668D01*
X453331Y410002D01*
X456663D01*
X458329Y411668D01*
Y413334D01*
X456663Y415000D01*
X451665D01*
X403335Y418332D02*
X401669Y419998D01*
X398337D01*
X396671Y418332D01*
Y411668D01*
X398337Y410002D01*
X401669D01*
X403335Y411668D01*
X406668Y418332D02*
X408334Y419998D01*
X411666D01*
X413332Y418332D01*
Y416666D01*
X411666Y415000D01*
X410000D01*
X411666D01*
X413332Y413334D01*
Y411668D01*
X411666Y410002D01*
X408334D01*
X406668Y411668D01*
X423329Y419998D02*
X416665D01*
Y415000D01*
X419997Y416666D01*
X421663D01*
X423329Y415000D01*
Y411668D01*
X421663Y410002D01*
X418331D01*
X416665Y411668D01*
X418335Y683332D02*
X416669Y684998D01*
X413337D01*
X411671Y683332D01*
Y676668D01*
X413337Y675002D01*
X416669D01*
X418335Y676668D01*
X421668Y683332D02*
X423334Y684998D01*
X426666D01*
X428332Y683332D01*
Y681666D01*
X426666Y680000D01*
X425000D01*
X426666D01*
X428332Y678334D01*
Y676668D01*
X426666Y675002D01*
X423334D01*
X421668Y676668D01*
X436663Y675002D02*
Y684998D01*
X431665Y680000D01*
X438329D01*
X638335Y583332D02*
X636669Y584998D01*
X633337D01*
X631671Y583332D01*
Y576668D01*
X633337Y575002D01*
X636669D01*
X638335Y576668D01*
X641668Y583332D02*
X643334Y584998D01*
X646666D01*
X648332Y583332D01*
Y581666D01*
X646666Y580000D01*
X645000D01*
X646666D01*
X648332Y578334D01*
Y576668D01*
X646666Y575002D01*
X643334D01*
X641668Y576668D01*
X651665Y583332D02*
X653331Y584998D01*
X656663D01*
X658329Y583332D01*
Y581666D01*
X656663Y580000D01*
X654997D01*
X656663D01*
X658329Y578334D01*
Y576668D01*
X656663Y575002D01*
X653331D01*
X651665Y576668D01*
X438335Y588332D02*
X436669Y589998D01*
X433337D01*
X431671Y588332D01*
Y581668D01*
X433337Y580002D01*
X436669D01*
X438335Y581668D01*
X441668Y588332D02*
X443334Y589998D01*
X446666D01*
X448332Y588332D01*
Y586666D01*
X446666Y585000D01*
X445000D01*
X446666D01*
X448332Y583334D01*
Y581668D01*
X446666Y580002D01*
X443334D01*
X441668Y581668D01*
X458329Y580002D02*
X451665D01*
X458329Y586666D01*
Y588332D01*
X456663Y589998D01*
X453331D01*
X451665Y588332D01*
X285002Y463332D02*
X283335Y464998D01*
X280003D01*
X278337Y463332D01*
Y456668D01*
X280003Y455002D01*
X283335D01*
X285002Y456668D01*
X288334Y463332D02*
X290000Y464998D01*
X293332D01*
X294998Y463332D01*
Y461666D01*
X293332Y460000D01*
X291666D01*
X293332D01*
X294998Y458334D01*
Y456668D01*
X293332Y455002D01*
X290000D01*
X288334Y456668D01*
X298331Y455002D02*
X301663D01*
X299997D01*
Y464998D01*
X298331Y463332D01*
X343335Y608332D02*
X341669Y609998D01*
X338337D01*
X336671Y608332D01*
Y601668D01*
X338337Y600002D01*
X341669D01*
X343335Y601668D01*
X346668Y608332D02*
X348334Y609998D01*
X351666D01*
X353332Y608332D01*
Y606666D01*
X351666Y605000D01*
X350000D01*
X351666D01*
X353332Y603334D01*
Y601668D01*
X351666Y600002D01*
X348334D01*
X346668Y601668D01*
X356665Y608332D02*
X358331Y609998D01*
X361663D01*
X363329Y608332D01*
Y601668D01*
X361663Y600002D01*
X358331D01*
X356665Y601668D01*
Y608332D01*
X83336Y553332D02*
X81669Y554998D01*
X78337D01*
X76671Y553332D01*
Y546668D01*
X78337Y545002D01*
X81669D01*
X83336Y546668D01*
X93332Y545002D02*
X86668D01*
X93332Y551666D01*
Y553332D01*
X91666Y554998D01*
X88334D01*
X86668Y553332D01*
X96664Y546668D02*
X98331Y545002D01*
X101663D01*
X103329Y546668D01*
Y553332D01*
X101663Y554998D01*
X98331D01*
X96664Y553332D01*
Y551666D01*
X98331Y550000D01*
X103329D01*
X338335Y438332D02*
X336669Y439998D01*
X333337D01*
X331671Y438332D01*
Y431668D01*
X333337Y430002D01*
X336669D01*
X338335Y431668D01*
X348332Y430002D02*
X341668D01*
X348332Y436666D01*
Y438332D01*
X346666Y439998D01*
X343334D01*
X341668Y438332D01*
X351665D02*
X353331Y439998D01*
X356663D01*
X358329Y438332D01*
Y436666D01*
X356663Y435000D01*
X358329Y433334D01*
Y431668D01*
X356663Y430002D01*
X353331D01*
X351665Y431668D01*
Y433334D01*
X353331Y435000D01*
X351665Y436666D01*
Y438332D01*
X353331Y435000D02*
X356663D01*
X303335Y438332D02*
X301669Y439998D01*
X298337D01*
X296671Y438332D01*
Y431668D01*
X298337Y430002D01*
X301669D01*
X303335Y431668D01*
X313332Y430002D02*
X306668D01*
X313332Y436666D01*
Y438332D01*
X311666Y439998D01*
X308334D01*
X306668Y438332D01*
X316665Y439998D02*
X323329D01*
Y438332D01*
X316665Y431668D01*
Y430002D01*
X200872Y374027D02*
X199206Y375693D01*
X195874D01*
X194208Y374027D01*
Y367362D01*
X195874Y365696D01*
X199206D01*
X200872Y367362D01*
X210869Y365696D02*
X204205D01*
X210869Y372360D01*
Y374027D01*
X209203Y375693D01*
X205871D01*
X204205Y374027D01*
X220866Y375693D02*
X217534Y374027D01*
X214202Y370694D01*
Y367362D01*
X215868Y365696D01*
X219200D01*
X220866Y367362D01*
Y369028D01*
X219200Y370694D01*
X214202D01*
X103336Y433332D02*
X101669Y434998D01*
X98337D01*
X96671Y433332D01*
Y426668D01*
X98337Y425002D01*
X101669D01*
X103336Y426668D01*
X113332Y425002D02*
X106668D01*
X113332Y431666D01*
Y433332D01*
X111666Y434998D01*
X108334D01*
X106668Y433332D01*
X123329Y434998D02*
X116664D01*
Y430000D01*
X119997Y431666D01*
X121663D01*
X123329Y430000D01*
Y426668D01*
X121663Y425002D01*
X118331D01*
X116664Y426668D01*
X138336Y433332D02*
X136669Y434998D01*
X133337D01*
X131671Y433332D01*
Y426668D01*
X133337Y425002D01*
X136669D01*
X138336Y426668D01*
X148332Y425002D02*
X141668D01*
X148332Y431666D01*
Y433332D01*
X146666Y434998D01*
X143334D01*
X141668Y433332D01*
X156663Y425002D02*
Y434998D01*
X151664Y430000D01*
X158329D01*
X648335Y208332D02*
X646669Y209998D01*
X643337D01*
X641671Y208332D01*
Y201668D01*
X643337Y200002D01*
X646669D01*
X648335Y201668D01*
X658332Y200002D02*
X651668D01*
X658332Y206666D01*
Y208332D01*
X656666Y209998D01*
X653334D01*
X651668Y208332D01*
X661665D02*
X663331Y209998D01*
X666663D01*
X668329Y208332D01*
Y206666D01*
X666663Y205000D01*
X664997D01*
X666663D01*
X668329Y203334D01*
Y201668D01*
X666663Y200002D01*
X663331D01*
X661665Y201668D01*
X613335Y208332D02*
X611669Y209998D01*
X608337D01*
X606671Y208332D01*
Y201668D01*
X608337Y200002D01*
X611669D01*
X613335Y201668D01*
X623332Y200002D02*
X616668D01*
X623332Y206666D01*
Y208332D01*
X621666Y209998D01*
X618334D01*
X616668Y208332D01*
X633329Y200002D02*
X626665D01*
X633329Y206666D01*
Y208332D01*
X631663Y209998D01*
X628331D01*
X626665Y208332D01*
X645002Y78332D02*
X643335Y79998D01*
X640003D01*
X638337Y78332D01*
Y71668D01*
X640003Y70002D01*
X643335D01*
X645002Y71668D01*
X654998Y70002D02*
X648334D01*
X654998Y76666D01*
Y78332D01*
X653332Y79998D01*
X650000D01*
X648334Y78332D01*
X658331Y70002D02*
X661663D01*
X659997D01*
Y79998D01*
X658331Y78332D01*
X253335Y168332D02*
X251669Y169998D01*
X248337D01*
X246671Y168332D01*
Y161668D01*
X248337Y160002D01*
X251669D01*
X253335Y161668D01*
X263332Y160002D02*
X256668D01*
X263332Y166666D01*
Y168332D01*
X261666Y169998D01*
X258334D01*
X256668Y168332D01*
X266665D02*
X268331Y169998D01*
X271663D01*
X273329Y168332D01*
Y161668D01*
X271663Y160002D01*
X268331D01*
X266665Y161668D01*
Y168332D01*
X614169Y78332D02*
X612502Y79998D01*
X609170D01*
X607504Y78332D01*
Y71668D01*
X609170Y70002D01*
X612502D01*
X614169Y71668D01*
X617501Y70002D02*
X620833D01*
X619167D01*
Y79998D01*
X617501Y78332D01*
X625831Y71668D02*
X627498Y70002D01*
X630830D01*
X632496Y71668D01*
Y78332D01*
X630830Y79998D01*
X627498D01*
X625831Y78332D01*
Y76666D01*
X627498Y75000D01*
X632496D01*
X584169Y78332D02*
X582502Y79998D01*
X579170D01*
X577504Y78332D01*
Y71668D01*
X579170Y70002D01*
X582502D01*
X584169Y71668D01*
X587501Y70002D02*
X590833D01*
X589167D01*
Y79998D01*
X587501Y78332D01*
X595831D02*
X597498Y79998D01*
X600830D01*
X602496Y78332D01*
Y76666D01*
X600830Y75000D01*
X602496Y73334D01*
Y71668D01*
X600830Y70002D01*
X597498D01*
X595831Y71668D01*
Y73334D01*
X597498Y75000D01*
X595831Y76666D01*
Y78332D01*
X597498Y75000D02*
X600830D01*
X189168Y48332D02*
X187502Y49998D01*
X184170D01*
X182504Y48332D01*
Y41668D01*
X184170Y40002D01*
X187502D01*
X189168Y41668D01*
X192501Y40002D02*
X195833D01*
X194167D01*
Y49998D01*
X192501Y48332D01*
X200831Y49998D02*
X207496D01*
Y48332D01*
X200831Y41668D01*
Y40002D01*
X554169Y78332D02*
X552502Y79998D01*
X549170D01*
X547504Y78332D01*
Y71668D01*
X549170Y70002D01*
X552502D01*
X554169Y71668D01*
X557501Y70002D02*
X560833D01*
X559167D01*
Y79998D01*
X557501Y78332D01*
X572496Y79998D02*
X569164Y78332D01*
X565831Y75000D01*
Y71668D01*
X567498Y70002D01*
X570830D01*
X572496Y71668D01*
Y73334D01*
X570830Y75000D01*
X565831D01*
X524169Y78332D02*
X522502Y79998D01*
X519170D01*
X517504Y78332D01*
Y71668D01*
X519170Y70002D01*
X522502D01*
X524169Y71668D01*
X527501Y70002D02*
X530833D01*
X529167D01*
Y79998D01*
X527501Y78332D01*
X542496Y79998D02*
X535831D01*
Y75000D01*
X539164Y76666D01*
X540830D01*
X542496Y75000D01*
Y71668D01*
X540830Y70002D01*
X537498D01*
X535831Y71668D01*
X221700Y236867D02*
X220034Y238533D01*
X216702D01*
X215036Y236867D01*
Y230202D01*
X216702Y228536D01*
X220034D01*
X221700Y230202D01*
X225033Y228536D02*
X228365D01*
X226699D01*
Y238533D01*
X225033Y236867D01*
X238362Y228536D02*
Y238533D01*
X233363Y233534D01*
X240028D01*
X494169Y78332D02*
X492502Y79998D01*
X489170D01*
X487504Y78332D01*
Y71668D01*
X489170Y70002D01*
X492502D01*
X494169Y71668D01*
X497501Y70002D02*
X500833D01*
X499167D01*
Y79998D01*
X497501Y78332D01*
X505831D02*
X507498Y79998D01*
X510830D01*
X512496Y78332D01*
Y76666D01*
X510830Y75000D01*
X509164D01*
X510830D01*
X512496Y73334D01*
Y71668D01*
X510830Y70002D01*
X507498D01*
X505831Y71668D01*
X191728Y236867D02*
X190062Y238533D01*
X186730D01*
X185064Y236867D01*
Y230202D01*
X186730Y228536D01*
X190062D01*
X191728Y230202D01*
X195061Y228536D02*
X198393D01*
X196727D01*
Y238533D01*
X195061Y236867D01*
X210056Y228536D02*
X203391D01*
X210056Y235201D01*
Y236867D01*
X208390Y238533D01*
X205058D01*
X203391Y236867D01*
X585835Y208332D02*
X584169Y209998D01*
X580836D01*
X579170Y208332D01*
Y201668D01*
X580836Y200002D01*
X584169D01*
X585835Y201668D01*
X589167Y200002D02*
X592499D01*
X590833D01*
Y209998D01*
X589167Y208332D01*
X597498Y200002D02*
X600830D01*
X599164D01*
Y209998D01*
X597498Y208332D01*
X161756Y236867D02*
X160090Y238533D01*
X156758D01*
X155092Y236867D01*
Y230202D01*
X156758Y228536D01*
X160090D01*
X161756Y230202D01*
X165089Y228536D02*
X168421D01*
X166755D01*
Y238533D01*
X165089Y236867D01*
X173419D02*
X175086Y238533D01*
X178418D01*
X180084Y236867D01*
Y230202D01*
X178418Y228536D01*
X175086D01*
X173419Y230202D01*
Y236867D01*
X558334Y208332D02*
X556668Y209998D01*
X553335D01*
X551669Y208332D01*
Y201668D01*
X553335Y200002D01*
X556668D01*
X558334Y201668D01*
X561666D02*
X563332Y200002D01*
X566665D01*
X568331Y201668D01*
Y208332D01*
X566665Y209998D01*
X563332D01*
X561666Y208332D01*
Y206666D01*
X563332Y205000D01*
X568331D01*
X131531Y236867D02*
X129864Y238533D01*
X126532D01*
X124866Y236867D01*
Y230202D01*
X126532Y228536D01*
X129864D01*
X131531Y230202D01*
X134863Y236867D02*
X136529Y238533D01*
X139861D01*
X141527Y236867D01*
Y235201D01*
X139861Y233534D01*
X141527Y231868D01*
Y230202D01*
X139861Y228536D01*
X136529D01*
X134863Y230202D01*
Y231868D01*
X136529Y233534D01*
X134863Y235201D01*
Y236867D01*
X136529Y233534D02*
X139861D01*
X528334Y208332D02*
X526668Y209998D01*
X523335D01*
X521669Y208332D01*
Y201668D01*
X523335Y200002D01*
X526668D01*
X528334Y201668D01*
X531666Y209998D02*
X538331D01*
Y208332D01*
X531666Y201668D01*
Y200002D01*
X498334Y208332D02*
X496668Y209998D01*
X493335D01*
X491669Y208332D01*
Y201668D01*
X493335Y200002D01*
X496668D01*
X498334Y201668D01*
X508331Y209998D02*
X504998Y208332D01*
X501666Y205000D01*
Y201668D01*
X503332Y200002D01*
X506665D01*
X508331Y201668D01*
Y203334D01*
X506665Y205000D01*
X501666D01*
X133334Y163332D02*
X131668Y164998D01*
X128336D01*
X126669Y163332D01*
Y156668D01*
X128336Y155002D01*
X131668D01*
X133334Y156668D01*
X143331Y164998D02*
X136666D01*
Y160000D01*
X139998Y161666D01*
X141664D01*
X143331Y160000D01*
Y156668D01*
X141664Y155002D01*
X138332D01*
X136666Y156668D01*
X108334Y48332D02*
X106668Y49998D01*
X103336D01*
X101669Y48332D01*
Y41668D01*
X103336Y40002D01*
X106668D01*
X108334Y41668D01*
X116664Y40002D02*
Y49998D01*
X111666Y45000D01*
X118331D01*
X143334Y48332D02*
X141668Y49998D01*
X138336D01*
X136669Y48332D01*
Y41668D01*
X138336Y40002D01*
X141668D01*
X143334Y41668D01*
X146666Y48332D02*
X148332Y49998D01*
X151664D01*
X153331Y48332D01*
Y46666D01*
X151664Y45000D01*
X149998D01*
X151664D01*
X153331Y43334D01*
Y41668D01*
X151664Y40002D01*
X148332D01*
X146666Y41668D01*
X108334Y18332D02*
X106668Y19998D01*
X103336D01*
X101669Y18332D01*
Y11668D01*
X103336Y10002D01*
X106668D01*
X108334Y11668D01*
X118331Y10002D02*
X111666D01*
X118331Y16666D01*
Y18332D01*
X116664Y19998D01*
X113332D01*
X111666Y18332D01*
X110000Y33332D02*
X108334Y34998D01*
X105002D01*
X103336Y33332D01*
Y26668D01*
X105002Y25002D01*
X108334D01*
X110000Y26668D01*
X113332Y25002D02*
X116664D01*
X114998D01*
Y34998D01*
X113332Y33332D01*
D13*
X290000Y59520D02*
G03*
X291000Y59520I500J0D01*
G01*
D02*
G03*
X290000Y59520I-500J0D01*
G01*
X291000Y139520D02*
G03*
X290000Y139520I-500J0D01*
G01*
D02*
G03*
X291000Y139520I500J0D01*
G01*
X250585Y372500D02*
G03*
X250585Y372500I-500J0D01*
G01*
X550585Y352500D02*
G03*
X550585Y352500I-500J0D01*
G01*
D14*
X215000Y516250D02*
X225000D01*
X215000Y530750D02*
X225000D01*
X245000Y536250D02*
X255000D01*
X245000Y550750D02*
X255000D01*
X245000Y516250D02*
X255000D01*
X245000Y530750D02*
X255000D01*
X275000Y536250D02*
X285000D01*
X275000Y550750D02*
X285000D01*
X275000Y530750D02*
X285000D01*
X275000Y516250D02*
X285000D01*
X182750Y468500D02*
Y478500D01*
X197250Y468500D02*
Y478500D01*
X215000Y550750D02*
X225000D01*
X215000Y536250D02*
X225000D01*
X97000Y6000D02*
X123000D01*
X97000D02*
Y68000D01*
X123000Y6000D02*
Y8000D01*
Y68000D01*
X97000D02*
X123000D01*
X105000Y108500D02*
X115000D01*
X105000Y124000D02*
X115000D01*
X110000Y111750D02*
Y120750D01*
X105000Y104000D02*
X115000D01*
X105000Y88500D02*
X115000D01*
X110000Y91750D02*
Y100750D01*
X105000Y84000D02*
X115000D01*
X105000Y68500D02*
X115000D01*
X110000Y71750D02*
Y80750D01*
X75000Y69000D02*
X85000D01*
X75000Y83500D02*
X85000D01*
X75000Y103500D02*
X85000D01*
X75000Y89000D02*
X85000D01*
X75000Y109000D02*
X85000D01*
X75000Y123500D02*
X85000D01*
X75000Y129000D02*
X85000D01*
X75000Y143500D02*
X85000D01*
X75000Y149000D02*
X85000D01*
X75000Y163500D02*
X85000D01*
X105000Y129000D02*
X115000D01*
X105000Y143500D02*
X115000D01*
X255000Y138500D02*
X265000D01*
X255000Y154000D02*
X265000D01*
X260000Y141750D02*
Y150750D01*
X149680Y83230D02*
X190320D01*
X149680Y149270D02*
X190320D01*
X195000Y58500D02*
X205000D01*
X195000Y74000D02*
X205000D01*
X200000Y61750D02*
Y70750D01*
X165000Y73500D02*
X175000D01*
X165000Y59000D02*
X175000D01*
X135000Y58500D02*
X145000D01*
X135000Y74000D02*
X145000D01*
X140000Y61750D02*
Y70750D01*
X222750Y61250D02*
Y71250D01*
X237250Y61250D02*
Y71250D01*
X247000Y80750D02*
Y91750D01*
X273000Y80750D02*
Y91750D01*
X334500Y79520D02*
Y117520D01*
X285500Y79520D02*
Y117520D01*
Y159520D02*
Y197520D01*
X334500Y159520D02*
Y197520D01*
X635000Y32750D02*
X645000D01*
X635000Y47250D02*
X645000D01*
X580250Y29250D02*
Y35750D01*
Y29250D02*
X586750D01*
X594000D02*
X606000D01*
X594000Y50750D02*
X606000D01*
X580250Y44250D02*
Y50750D01*
X586750D01*
X662750Y108750D02*
Y123750D01*
X650000Y116250D02*
X659250D01*
X640750D02*
X650000D01*
X637250Y108750D02*
Y123750D01*
X632750Y108750D02*
Y123750D01*
X620000Y116250D02*
X629250D01*
X610750D02*
X620000D01*
X607250Y108750D02*
Y123750D01*
X602750Y108750D02*
Y123750D01*
X590000Y116250D02*
X599250D01*
X580750D02*
X590000D01*
X577250Y108750D02*
Y123750D01*
X572750Y108750D02*
Y123750D01*
X560000Y116250D02*
X569250D01*
X550750D02*
X560000D01*
X547250Y108750D02*
Y123750D01*
X542750Y108750D02*
Y123750D01*
X530000Y116250D02*
X539250D01*
X520750D02*
X530000D01*
X517250Y108750D02*
Y123750D01*
X512750Y108750D02*
Y123750D01*
X500000Y116250D02*
X509250D01*
X490750D02*
X500000D01*
X487250Y108750D02*
Y123750D01*
Y158750D02*
Y173750D01*
X490750Y166250D02*
X500000D01*
X509250D01*
X512750Y158750D02*
Y173750D01*
X517250Y158750D02*
Y173750D01*
X520750Y166250D02*
X530000D01*
X539250D01*
X542750Y158750D02*
Y173750D01*
X547250Y158750D02*
Y173750D01*
X550750Y166250D02*
X560000D01*
X569250D01*
X572750Y158750D02*
Y173750D01*
X577250Y158750D02*
Y173750D01*
X580750Y166250D02*
X590000D01*
X599250D01*
X602750Y158750D02*
Y173750D01*
X607250Y158750D02*
Y173750D01*
X610750Y166250D02*
X620000D01*
X629250D01*
X632750Y158750D02*
Y173750D01*
X637250Y158750D02*
Y173750D01*
X640750Y166250D02*
X650000D01*
X659250D01*
X662750Y158750D02*
Y173750D01*
X105835Y382250D02*
Y397750D01*
X109085Y390000D02*
X115085D01*
X124335Y382250D02*
Y397750D01*
X115085Y390000D02*
X121085D01*
X135835Y382250D02*
Y397750D01*
X139085Y390000D02*
X145085D01*
X154335Y382250D02*
Y397750D01*
X145085Y390000D02*
X151085D01*
X170085Y422750D02*
X180085D01*
X170085Y437250D02*
X180085D01*
X282335Y405000D02*
Y415000D01*
X267835Y405000D02*
Y415000D01*
X247835Y405000D02*
Y415000D01*
X262335Y405000D02*
Y415000D01*
X317835Y382500D02*
Y397500D01*
X305085Y390000D02*
X314335D01*
X295835D02*
X305085D01*
X292335Y382500D02*
Y397500D01*
X347835Y382500D02*
Y397500D01*
X335085Y390000D02*
X344335D01*
X325835D02*
X335085D01*
X322335Y382500D02*
Y397500D01*
X435835Y362250D02*
Y377750D01*
X439085Y370000D02*
X445085D01*
X454335Y362250D02*
Y377750D01*
X445085Y370000D02*
X451085D01*
X405835Y362250D02*
Y377750D01*
X409085Y370000D02*
X415085D01*
X424335Y362250D02*
Y377750D01*
X415085Y370000D02*
X421085D01*
X359250Y339750D02*
X365750D01*
X359250Y333250D02*
Y339750D01*
Y314000D02*
Y326000D01*
X380750Y314000D02*
Y326000D01*
X374250Y339750D02*
X380750D01*
Y333250D02*
Y339750D01*
X362750Y275000D02*
Y285000D01*
X377250Y275000D02*
Y285000D01*
X660000Y322250D02*
X670000D01*
X660000Y307750D02*
X670000D01*
X669250Y265250D02*
X675750D01*
Y271750D01*
Y279000D02*
Y291000D01*
X654250Y279000D02*
Y291000D01*
Y265250D02*
X660750D01*
X654250D02*
Y271750D01*
X470085Y417250D02*
X480085D01*
X470085Y402750D02*
X480085D01*
X651685Y362290D02*
Y377290D01*
X638935Y369790D02*
X648185D01*
X629685D02*
X638935D01*
X626185Y362290D02*
Y377290D01*
X621685Y362290D02*
Y377290D01*
X608935Y369790D02*
X618185D01*
X599685D02*
X608935D01*
X596185Y362290D02*
Y377290D01*
X567835Y385000D02*
Y395000D01*
X582335Y385000D02*
Y395000D01*
X562335Y385000D02*
Y395000D01*
X547835Y385000D02*
Y395000D01*
X635000Y652750D02*
X645000D01*
X635000Y667250D02*
X645000D01*
X580250Y649250D02*
Y655750D01*
Y649250D02*
X586750D01*
X594000D02*
X606000D01*
X594000Y670750D02*
X606000D01*
X580250Y664250D02*
Y670750D01*
X586750D01*
X538500Y472000D02*
X576800D01*
X603200D02*
X641500D01*
X556500Y575000D02*
X576800D01*
X603200D02*
X623500D01*
X641500Y557000D01*
Y472000D02*
Y557000D01*
X538500Y472000D02*
Y557000D01*
X556500Y575000D01*
X428500Y472000D02*
X466800D01*
X493200D02*
X531500D01*
X446500Y575000D02*
X466800D01*
X493200D02*
X513500D01*
X531500Y557000D01*
Y472000D02*
Y557000D01*
X428500Y472000D02*
Y557000D01*
X446500Y575000D01*
X453000Y666500D02*
X463000Y656500D01*
X397000Y666500D02*
X453000D01*
X397000Y600500D02*
X453000D01*
X463000Y610500D01*
Y622300D01*
Y644700D02*
Y656500D01*
X397000Y600500D02*
Y622300D01*
Y644700D02*
Y666500D01*
X318500Y472000D02*
X356800D01*
X383200D02*
X421500D01*
X336500Y575000D02*
X356800D01*
X383200D02*
X403500D01*
X421500Y557000D01*
Y472000D02*
Y557000D01*
X318500Y472000D02*
Y557000D01*
X336500Y575000D01*
X107000Y536500D02*
X117000Y546500D01*
X107000Y480500D02*
Y536500D01*
X173000Y480500D02*
Y536500D01*
X163000Y546500D02*
X173000Y536500D01*
X151200Y546500D02*
X163000D01*
X117000D02*
X128800D01*
X151200Y480500D02*
X173000D01*
X107000D02*
X128800D01*
X114000Y591000D02*
Y616000D01*
X146000Y591000D02*
Y616000D01*
X297750Y478500D02*
Y488500D01*
X282250Y478500D02*
Y488500D01*
X285500Y483500D02*
X294500D01*
X37250Y190000D02*
Y200000D01*
X22750Y190000D02*
Y200000D01*
X34250Y135250D02*
X40750D01*
Y141750D01*
Y149000D02*
Y161000D01*
X19250Y149000D02*
Y161000D01*
Y135250D02*
X25750D01*
X19250D02*
Y141750D01*
X73750Y184250D02*
Y188250D01*
X86530Y194000D02*
Y201284D01*
Y171219D02*
Y178500D01*
X76250Y201284D02*
X86530D01*
X75750Y171219D02*
X86530D01*
X105000Y169000D02*
X115000D01*
X105000Y183500D02*
X115000D01*
X349040Y175980D02*
Y208480D01*
X476040D01*
Y175980D02*
Y208480D01*
Y81480D02*
Y113980D01*
X349040Y81480D02*
X476040D01*
X349040D02*
Y113980D01*
X230000Y196250D02*
X236000D01*
X239250Y188500D02*
Y204000D01*
X224000Y196250D02*
X230000D01*
X220750Y188500D02*
Y204000D01*
X200000Y196250D02*
X206000D01*
X209250Y188500D02*
Y204000D01*
X194000Y196250D02*
X200000D01*
X190750Y188500D02*
Y204000D01*
X170000Y196250D02*
X176000D01*
X179250Y188500D02*
Y204000D01*
X164000Y196250D02*
X170000D01*
X160750Y188500D02*
Y204000D01*
X140000Y196250D02*
X146000D01*
X149250Y188500D02*
Y204000D01*
X134000Y196250D02*
X140000D01*
X130750Y188500D02*
Y204000D01*
X105000Y148500D02*
X115000D01*
X105000Y164000D02*
X115000D01*
X110000Y151750D02*
Y160750D01*
X445000Y47250D02*
X455000D01*
X445000Y32750D02*
X455000D01*
X390250Y50750D02*
X396750D01*
X390250Y44250D02*
Y50750D01*
X404000D02*
X416000D01*
X404000Y29250D02*
X416000D01*
X390250D02*
X396750D01*
X390250D02*
Y35750D01*
X200085Y342250D02*
X210085D01*
X200085Y357750D02*
X210085D01*
X205085Y345500D02*
Y354500D01*
X500085Y322250D02*
X510085D01*
X500085Y337750D02*
X510085D01*
X505085Y325500D02*
Y334500D01*
D15*
X240700Y137900D02*
X242800D01*
X217200D02*
X219300D01*
X240700Y94600D02*
X242800D01*
X217200D02*
X219300D01*
X217200D02*
Y137900D01*
X242800Y94600D02*
Y137900D01*
X256585Y373500D02*
X273585D01*
X256585Y386500D02*
X273585D01*
X256585Y373500D02*
Y374500D01*
Y385500D02*
Y386500D01*
X273585Y373500D02*
Y374500D01*
Y385500D02*
Y386500D01*
X110560Y300290D02*
X179310D01*
X110560Y359290D02*
X179310D01*
X110560Y352790D02*
Y359290D01*
Y300290D02*
Y306790D01*
X179310Y352790D02*
Y359290D01*
Y300290D02*
Y306790D01*
X410560Y280290D02*
X479310D01*
X410560Y339290D02*
X479310D01*
X410560Y332790D02*
Y339290D01*
Y280290D02*
Y286790D01*
X479310Y332790D02*
Y339290D01*
Y280290D02*
Y286790D01*
X158500Y685000D02*
X281500D01*
X158500Y562000D02*
X281500D01*
Y653700D02*
Y685000D01*
Y562000D02*
Y593300D01*
X158500Y653700D02*
Y685000D01*
Y562000D02*
Y593300D01*
X297200Y581850D02*
X299300D01*
X320700D02*
X322800D01*
X297200Y625150D02*
X299300D01*
X320700D02*
X322800D01*
Y581850D02*
Y625150D01*
X297200Y581850D02*
Y625150D01*
X573585Y365500D02*
Y366500D01*
Y353500D02*
Y354500D01*
X556585Y365500D02*
Y366500D01*
Y353500D02*
Y354500D01*
Y366500D02*
X573585D01*
X556585Y353500D02*
X573585D01*
M02*
