M48
;Layer_Color=9474304
;FILE_FORMAT=4:4
METRIC,LZ
;TYPE=PLATED
T01F00S00C0.3000
T02F00S00C0.5000
T03F00S00C1.0000
;TYPE=NON_PLATED
T04F00S00C3.2000
%
T01
X00092Y00061
X00132Y00055
X00149Y00078
X0016Y0008
X0017
Y0009
X0016
X0018
Y0008
Y00145
X0017
X0016
X00129Y00119
X00102Y00126
X00065Y00136
Y00116
Y00096
X00218Y00095
X00213Y00106
X00225Y00114
X00246Y00113
X00255
X00264
X00273
Y00089
X00264
X00255
X00246
X00281Y00088
X0034Y00071
X00385Y0004
X0049Y0009
X0051
X0052
X0054
X0055
X0057
X0058
X00577Y0004
X0023Y00051
X00208Y00056
X00203Y00079
X00214Y00139
X006Y0009
X0061
X0063
X0064
X0066
X0066Y001925
X0064
X0063
X0061
X006
X0068Y00275
X00647969Y00395969
X00638935Y00395935
X00629969Y00395969
X00618Y00396
X00608966Y00395966
X006Y00396
X00555Y00375
X0051Y0039
X005
X00495Y004
X00505
X00515
X0051Y00355
X005
X00495Y00345
X00505
X00515
X0044Y00305
Y00295
Y00285
Y00275
X00438Y004
X00452
X00422
X00408
X00345Y0042
X00335
X00325
X00315
X00305
X00295
X00286Y00422
X00255Y00394
X0021Y00375
X002
X00205Y00365
X00215
X00205Y0041
X002Y0042
X0021
X00215Y0043
X00205
X0021325Y0051455
X00249Y00511
X00267Y0051
X0028Y00503
X00299Y00477
X00256
X00298Y00537
X0037Y00343
X00337Y0015
X00237Y00225
X00223
X00207
X0049Y001925
X0051
X0052
X0054
X0055
X0057
X0058
X00193Y00225
X00177
X00163
X00147
X00133
X00102Y00165
X0006Y00177
X00032Y00168
X0016Y00155
X0017
X0018
X00195Y00365
Y0043
X00152085Y0041875
X00138085
X00122085
X00108085
X001Y0034
Y0033
Y0032
Y0031
X00193Y00492
X00192Y00511
X00256Y00553
X00274Y00552
X00312Y00556
X00577Y0066
T02
X0002Y0009
X0037Y00452
Y00508
X0048
Y00452
X0059
Y00508
X0014Y00513
X001255Y004885
X0014Y00466
X00405Y0062
Y00648
T03
X006973Y001087
Y001341
X007227
Y001087
Y001595
Y001849
Y002103
Y002357
Y002611
Y002865
Y003119
Y003373
Y003627
Y003881
Y004135
Y004389
Y004643
Y004897
Y005151
Y005405
X006973
Y005151
Y004897
Y004643
Y004389
Y004135
Y003881
Y003627
Y003373
Y003119
Y002865
Y002611
Y002357
Y002103
Y001849
Y001595
Y005659
Y005913
X007227
Y005659
T04
X0004Y0004
X0071
X0004Y0066
X0071
M30
