G04*
G04 #@! TF.GenerationSoftware,Altium Limited,Altium Designer,24.6.1 (21)*
G04*
G04 Layer_Color=8421504*
%FSLAX44Y44*%
%MOMM*%
G71*
G04*
G04 #@! TF.SameCoordinates,DA47E9CF-6C3E-4516-8E5E-8674E5FB0160*
G04*
G04*
G04 #@! TF.FilePolarity,Positive*
G04*
G01*
G75*
%ADD16R,2.0000X4.1000*%
%ADD17R,0.7620X0.7620*%
%ADD18R,1.4000X1.6000*%
%ADD19R,0.8000X0.9500*%
%ADD20R,0.9500X0.8000*%
%ADD21R,1.4500X0.6000*%
%ADD22O,1.4500X0.6000*%
%ADD23R,0.5900X1.3200*%
%ADD24R,0.9000X1.0500*%
%ADD25R,1.4500X0.4500*%
%ADD26R,3.1500X4.3500*%
%ADD27R,1.5000X2.1200*%
%ADD28R,2.7700X1.1000*%
%ADD29R,3.9100X3.8100*%
%ADD30R,0.6100X1.2700*%
%ADD31R,0.6100X0.7100*%
%ADD32R,0.6100X1.0200*%
%ADD33R,1.4000X1.5000*%
%ADD34R,2.7062X0.9542*%
%ADD35R,1.0400X0.4600*%
%ADD36R,3.1750X4.9530*%
%ADD37R,2.0000X1.4000*%
%ADD38R,1.5500X0.6000*%
%ADD39R,1.5000X1.4000*%
%ADD40R,4.5000X1.8000*%
%ADD41R,3.2000X1.6000*%
%ADD42R,2.8000X5.4000*%
%ADD43R,1.6000X3.2000*%
G04:AMPARAMS|DCode=44|XSize=1.9mm|YSize=3.37mm|CornerRadius=0.0665mm|HoleSize=0mm|Usage=FLASHONLY|Rotation=270.000|XOffset=0mm|YOffset=0mm|HoleType=Round|Shape=RoundedRectangle|*
%AMROUNDEDRECTD44*
21,1,1.9000,3.2370,0,0,270.0*
21,1,1.7670,3.3700,0,0,270.0*
1,1,0.1330,-1.6185,-0.8835*
1,1,0.1330,-1.6185,0.8835*
1,1,0.1330,1.6185,0.8835*
1,1,0.1330,1.6185,-0.8835*
%
%ADD44ROUNDEDRECTD44*%
%ADD45R,1.0500X0.9000*%
%ADD46R,2.9000X5.4000*%
G36*
X145150Y304600D02*
X129350D01*
Y320400D01*
X145150D01*
Y304600D01*
D02*
G37*
G36*
X170150D02*
X154350D01*
Y320400D01*
X170150D01*
Y304600D01*
D02*
G37*
G36*
X145150Y329600D02*
X129350D01*
Y345400D01*
X145150D01*
Y329600D01*
D02*
G37*
G36*
X170150D02*
X154350D01*
Y345400D01*
X170150D01*
Y329600D01*
D02*
G37*
G36*
X197835Y397256D02*
X212341D01*
Y382750D01*
X197835D01*
Y397256D01*
D02*
G37*
G36*
X512341Y362750D02*
X497835D01*
Y377256D01*
X512341D01*
Y362750D01*
D02*
G37*
G36*
X510150Y294600D02*
X494350D01*
Y310400D01*
X510150D01*
Y294600D01*
D02*
G37*
G36*
X485150D02*
X469350D01*
Y310400D01*
X485150D01*
Y294600D01*
D02*
G37*
G36*
X510150Y269600D02*
X494350D01*
Y285400D01*
X510150D01*
Y269600D01*
D02*
G37*
G36*
X485150D02*
X469350D01*
Y285400D01*
X485150D01*
Y269600D01*
D02*
G37*
D16*
X370000Y567000D02*
D03*
Y480000D02*
D03*
X590000D02*
D03*
Y567000D02*
D03*
X480000Y480000D02*
D03*
Y567000D02*
D03*
D17*
X51610Y186225D02*
D03*
X28750Y195750D02*
D03*
Y176700D02*
D03*
X68750D02*
D03*
Y195750D02*
D03*
X91610Y186225D02*
D03*
D18*
X452250Y300500D02*
D03*
Y279500D02*
D03*
X112250Y335500D02*
D03*
Y314500D02*
D03*
D19*
X213500Y523500D02*
D03*
X226500D02*
D03*
X243500Y543500D02*
D03*
X256500D02*
D03*
X243500Y523500D02*
D03*
X256500D02*
D03*
X273500Y543500D02*
D03*
X286500D02*
D03*
X286500Y523500D02*
D03*
X273500D02*
D03*
X226500Y543500D02*
D03*
X213500D02*
D03*
X73500Y76250D02*
D03*
X86500D02*
D03*
X86500Y96250D02*
D03*
X73500D02*
D03*
X73500Y116250D02*
D03*
X86500D02*
D03*
X73500Y136250D02*
D03*
X86500D02*
D03*
X73500Y156250D02*
D03*
X86500D02*
D03*
X103500Y136250D02*
D03*
X116500D02*
D03*
X176500Y66250D02*
D03*
X163500D02*
D03*
X633500Y40000D02*
D03*
X646500D02*
D03*
X168585Y430000D02*
D03*
X181585D02*
D03*
X671500Y315000D02*
D03*
X658500D02*
D03*
X481585Y410000D02*
D03*
X468585D02*
D03*
X633500Y660000D02*
D03*
X646500D02*
D03*
X103500Y176250D02*
D03*
X116500D02*
D03*
X456500Y40000D02*
D03*
X443500D02*
D03*
D20*
X190000Y480000D02*
D03*
Y467000D02*
D03*
X230000Y72750D02*
D03*
Y59750D02*
D03*
X275085Y403500D02*
D03*
Y416500D02*
D03*
X255085Y416500D02*
D03*
Y403500D02*
D03*
X370000Y286500D02*
D03*
Y273500D02*
D03*
X575085Y396500D02*
D03*
Y383500D02*
D03*
X555085Y383500D02*
D03*
Y396500D02*
D03*
X20000Y148500D02*
D03*
Y161500D02*
D03*
D21*
X267250Y464450D02*
D03*
D22*
Y477150D02*
D03*
Y489850D02*
D03*
Y502550D02*
D03*
X212750Y464450D02*
D03*
Y477150D02*
D03*
Y489850D02*
D03*
Y502550D02*
D03*
D23*
X180500Y544950D02*
D03*
X199500D02*
D03*
Y522050D02*
D03*
X190000D02*
D03*
X180500D02*
D03*
D24*
X102000Y116250D02*
D03*
X118000D02*
D03*
X118000Y96250D02*
D03*
X102000D02*
D03*
X118000Y76250D02*
D03*
X102000D02*
D03*
X252000Y146250D02*
D03*
X268000D02*
D03*
X192000Y66250D02*
D03*
X208000D02*
D03*
X132000D02*
D03*
X148000D02*
D03*
X102000Y156250D02*
D03*
X118000D02*
D03*
X197085Y350000D02*
D03*
X213085D02*
D03*
X497085Y330000D02*
D03*
X513085D02*
D03*
D25*
X140750Y145500D02*
D03*
Y139000D02*
D03*
Y132500D02*
D03*
Y126000D02*
D03*
Y119500D02*
D03*
Y113000D02*
D03*
Y106500D02*
D03*
Y100000D02*
D03*
Y93500D02*
D03*
Y87000D02*
D03*
X199250D02*
D03*
Y93500D02*
D03*
Y100000D02*
D03*
Y106500D02*
D03*
Y113000D02*
D03*
Y119500D02*
D03*
Y126000D02*
D03*
Y132500D02*
D03*
Y139000D02*
D03*
Y145500D02*
D03*
D26*
X170000Y116250D02*
D03*
D27*
X230000Y137400D02*
D03*
Y95100D02*
D03*
X310000Y582350D02*
D03*
Y624650D02*
D03*
D28*
X260000Y72120D02*
D03*
Y100380D02*
D03*
D29*
X310000Y104550D02*
D03*
Y184550D02*
D03*
D30*
X290950Y70820D02*
D03*
X303650D02*
D03*
X316350D02*
D03*
X329050D02*
D03*
Y150820D02*
D03*
X316350D02*
D03*
X303650D02*
D03*
X290950D02*
D03*
D31*
X316350Y127020D02*
D03*
X303650D02*
D03*
Y207020D02*
D03*
X316350D02*
D03*
D32*
X329050Y125460D02*
D03*
X290950D02*
D03*
Y205460D02*
D03*
X329050D02*
D03*
D33*
X610000Y40000D02*
D03*
X590000D02*
D03*
X610000Y660000D02*
D03*
X590000D02*
D03*
X400000Y40000D02*
D03*
X420000D02*
D03*
D34*
X650000Y132500D02*
D03*
Y100000D02*
D03*
X620000Y132500D02*
D03*
Y100000D02*
D03*
X590000Y132500D02*
D03*
Y100000D02*
D03*
X560000Y132500D02*
D03*
Y100000D02*
D03*
X530000Y132500D02*
D03*
Y100000D02*
D03*
X500000Y132500D02*
D03*
Y100000D02*
D03*
Y150000D02*
D03*
Y182500D02*
D03*
X530000Y150000D02*
D03*
Y182500D02*
D03*
X560000Y150000D02*
D03*
Y182500D02*
D03*
X590000Y150000D02*
D03*
Y182500D02*
D03*
X620000Y150000D02*
D03*
Y182500D02*
D03*
X650000Y150000D02*
D03*
Y182500D02*
D03*
X305085Y406250D02*
D03*
Y373750D02*
D03*
X335085Y406250D02*
D03*
Y373750D02*
D03*
X638935Y386040D02*
D03*
Y353540D02*
D03*
X608935Y386040D02*
D03*
Y353540D02*
D03*
D35*
X276985Y380000D02*
D03*
X253185D02*
D03*
X553185Y360000D02*
D03*
X576985D02*
D03*
D36*
X240000Y310000D02*
D03*
X330170D02*
D03*
X540000Y290000D02*
D03*
X630170D02*
D03*
D37*
X115085Y408000D02*
D03*
Y372000D02*
D03*
X145085Y408000D02*
D03*
Y372000D02*
D03*
X445085Y388000D02*
D03*
Y352000D02*
D03*
X415085Y388000D02*
D03*
Y352000D02*
D03*
X230000Y178250D02*
D03*
Y214250D02*
D03*
X200000Y178250D02*
D03*
Y214250D02*
D03*
X170000Y178250D02*
D03*
Y214250D02*
D03*
X140000Y178250D02*
D03*
Y214250D02*
D03*
D38*
X232085Y370950D02*
D03*
Y383650D02*
D03*
Y396350D02*
D03*
Y409050D02*
D03*
X178085D02*
D03*
Y396350D02*
D03*
Y383650D02*
D03*
Y370950D02*
D03*
X478085Y350950D02*
D03*
Y363650D02*
D03*
Y376350D02*
D03*
Y389050D02*
D03*
X532085D02*
D03*
Y376350D02*
D03*
Y363650D02*
D03*
Y350950D02*
D03*
D39*
X370000Y310000D02*
D03*
Y330000D02*
D03*
X665000Y295000D02*
D03*
Y275000D02*
D03*
X20000Y125000D02*
D03*
Y105000D02*
D03*
D40*
X530000Y597000D02*
D03*
Y630000D02*
D03*
D41*
X455000Y633500D02*
D03*
X405000D02*
D03*
D42*
X171000Y623500D02*
D03*
X269000D02*
D03*
D43*
X140000Y538500D02*
D03*
Y488500D02*
D03*
D44*
X130000Y576900D02*
D03*
Y630100D02*
D03*
D45*
X290000Y475500D02*
D03*
Y491500D02*
D03*
D46*
X363040Y144980D02*
D03*
X462040D02*
D03*
M02*
